<?xml version="1.0" encoding="utf-8"?>
<svg version="1.1" id="Capa_1" xmlns="http://www.w3.org/2000/svg" xmlns:xlink="http://www.w3.org/1999/xlink" x="0px" y="0px"
	 width="100" height="100" viewBox="0 0 100 100" style="enable-background:new 0 0 100 100;" xml:space="preserve">
<style type="text/css">
	.st0{fill:#BA131A;}
</style>
<g>
	<path class="st0" d="M35.1,88.4c-0.5,0-1,0.2-1.4,0.6c-0.4,0.4-0.6,0.8-0.6,1.4s0.2,1,0.6,1.4c0.4,0.4,0.8,0.6,1.4,0.6
		c0.5,0,1-0.2,1.4-0.6c0.4-0.4,0.6-0.8,0.6-1.4s-0.2-1-0.6-1.4C36.1,88.6,35.6,88.4,35.1,88.4z"/>
	<path class="st0" d="M89.4,21.1L55.9,2.5c-3.7-2.1-8.2-2.1-11.9,0L10.6,21.1c-3.9,2.2-6.3,6.3-6.3,10.7v10.4c0,0,0,0,0,0v25.9
		c0,4.5,2.4,8.6,6.3,10.7l17.7,9.8c0.9,0.5,2.1,0.2,2.6-0.7c0.5-0.9,0.2-2.1-0.7-2.6L27.6,84c0-0.1,0-0.1,0-0.2V56.3l16.3,9
		c1.3,0.7,2.7,1.2,4.2,1.4v28.1c-0.7-0.2-1.5-0.5-2.2-0.8l-4.3-2.4c-0.9-0.5-2.1-0.2-2.6,0.7c-0.5,0.9-0.2,2.1,0.7,2.6l4.3,2.4
		c1.9,1,3.9,1.5,5.9,1.5c2,0,4.1-0.5,5.9-1.5l33.5-18.5c3.9-2.2,6.3-6.3,6.3-10.7V42.3c0,0,0,0,0,0V31.8
		C95.7,27.4,93.3,23.2,89.4,21.1z M91.9,31.8v9.3l-15.7,8.7v-8.7c0-1.1-0.2-2.1-0.6-3l15.9-8.8C91.8,30.1,91.9,30.9,91.9,31.8z
		 M75.9,18l11.6,6.4c0.7,0.4,1.4,0.9,2,1.5l-16.3,9c-0.3-0.2-0.6-0.4-0.9-0.6l-6.5-3.6c5.7-0.2,10.4-4.9,10.4-10.7
		C76.1,19.3,76,18.7,75.9,18z M68,13.7c2.1,0.8,4.3,3,4.3,6.4c0,3.8-3.1,6.9-6.9,6.9h-6.5l0,0c0.1-0.4,0.2-0.9,0.2-1.4
		c0-2.4-1-4.6-2.6-6.2l4-4.1C62.9,12.8,65.9,12.8,68,13.7z M45.9,5.9c2.6-1.4,5.6-1.4,8.2,0l7.4,4.1c-1.4,0.5-2.7,1.4-3.8,2.5
		l-4.5,4.6c-1-0.4-2-0.6-3.1-0.6h-1c-0.9,0-1.7,0.1-2.5,0.4l-4.3-4.4c-1.1-1.1-2.4-2-3.8-2.5L45.9,5.9z M55.2,25.5
		c0,0.8-0.6,1.4-1.4,1.4h-8.4c-0.8,0-1.4-0.6-1.4-1.4c0-2.8,2.3-5.1,5.1-5.1h1C52.9,20.4,55.2,22.7,55.2,25.5z M32,13.7
		c2.1-0.8,5.1-0.9,7.5,1.5l3.6,3.7c-1.8,1.6-3,4-3,6.6c0,0.5,0.1,1,0.2,1.4h-5.7c-3.8,0-6.9-3.1-6.9-6.9
		C27.7,16.6,29.9,14.5,32,13.7z M23.8,81.8l-11.3-6.3c-2.7-1.5-4.4-4.3-4.4-7.4V45.5l15.7,8.7V81.8z M23.8,41.1v8.7L8.1,41.1v-9.3
		c0-0.9,0.2-1.8,0.4-2.7L24.4,38C24,38.9,23.8,40,23.8,41.1z M26.8,34.9l-16.3-9c0.6-0.6,1.2-1.1,1.9-1.5L24.1,18
		c-0.1,0.7-0.2,1.4-0.2,2.1c0,5.8,4.6,10.5,10.3,10.7l-6.5,3.6C27.4,34.5,27.1,34.7,26.8,34.9z M48.1,62.9L48.1,62.9
		c-0.8-0.2-1.6-0.5-2.3-0.9L27.6,51.9V41.1c0-0.4,0.1-0.8,0.2-1.2l16.1,8.9c1.3,0.7,2.7,1.2,4.2,1.4V62.9z M45.8,45.4l-15.1-8.3
		l11.4-6.3h15.8l11.5,6.4l-15,8.3C51.7,46.9,48.5,46.9,45.8,45.4z M56.2,48.8l16-8.9c0.1,0.4,0.2,0.8,0.2,1.2v10.9L54.2,62
		c-0.7,0.4-1.5,0.7-2.3,0.9V50.2h0C53.4,50,54.8,49.5,56.2,48.8z M91.9,68.2L91.9,68.2c0,3.1-1.7,5.9-4.4,7.4l-11.3,6.3v-5.4
		c0-1.1-0.9-1.9-1.9-1.9s-1.9,0.9-1.9,1.9v7.3c0,0.1,0,0.1,0,0.2L54.1,94.1c-0.7,0.4-1.4,0.7-2.2,0.8V66.8c1.4-0.2,2.9-0.7,4.2-1.4
		l16.3-9v5.7c0,1.1,0.9,1.9,1.9,1.9s1.9-0.9,1.9-1.9v-7.9l15.7-8.7V68.2z"/>
	<path class="st0" d="M74.3,67.7c-0.5,0-1,0.2-1.4,0.6c-0.4,0.4-0.6,0.8-0.6,1.4s0.2,1,0.6,1.4c0.4,0.4,0.8,0.6,1.4,0.6
		c0.5,0,1-0.2,1.4-0.6c0.4-0.4,0.6-0.8,0.6-1.4s-0.2-1-0.6-1.4C75.3,67.9,74.8,67.7,74.3,67.7z"/>
</g>
</svg>
