<?xml version="1.0" encoding="utf-8"?>
<!-- Generator: Adobe Illustrator 23.0.2, SVG Export Plug-In . SVG Version: 6.00 Build 0)  -->
<svg version="1.1" id="Capa_1" xmlns="http://www.w3.org/2000/svg" xmlns:xlink="http://www.w3.org/1999/xlink" x="0px" y="0px"
	 viewBox="0 0 30 30" style="enable-background:new 0 0 30 30;" xml:space="preserve">
<style type="text/css">
	.st0{fill:#FFFFFF;}
</style>
<g>
	<path class="st0" d="M3.3,19c-0.4,0-0.7,0.4-0.7,0.7v1.1c0,5,4.5,8.2,7.4,8.2h9.6c3.7,0,7.7-2.9,7.7-8.1v-1.1
		c0-0.4-0.4-0.7-0.7-0.7L3.3,19L3.3,19z M19.6,28.1h-9.2c-2.8,0-6.2-2.8-6.7-5.7h22.5C26,25,23.3,28,19.6,28.1z M3.7,21.3
		c-0.1-0.3-0.1-0.7,0-1.2c0.7,0,22.1,0,22.6,0c0,0.8,0.1,0.9,0,1.2"/>
	<path class="st0" d="M5.2,19c0.4-1.1,1.4-2.4,2.6-2.4c0.5,0,0.8-0.4,0.8-0.8c0-1.5,1.5-2.6,2.9-2.6c0.3,0,0.5,0.1,0.7,0.1
		c0.2,0.1,0.5,0.1,0.6-0.1c0.2-0.1,0.4-0.3,0.4-0.5c0.3-0.8,1.1-1.4,1.9-1.4c0.8,0,1.8,0.6,2.1,1.4c0.1,0.2,0.2,0.4,0.4,0.5
		c0.2,0.1,0.4,0.2,0.6,0.1c0.3-0.1,0.7-0.1,0.9-0.1c1.5,0,2.5,1.2,2.5,2.7c0,0.5,0.4,0.8,0.8,0.8c1.2,0,2.4,1.2,2.8,2.3h1.1
		c-0.4-1.8-1.8-3.1-3.5-3.4c-0.4-2-2.1-3.6-4.2-3.6c-0.2,0-0.4,0-0.5,0.1c-0.6-1.1-1.8-1.8-3-1.8s-2.4,0.7-3,1.8
		c-0.2,0-0.4-0.1-0.5-0.1c-2.1,0-3.9,1.5-4.2,3.6C5.7,16,4.3,17.4,4,19.1L5.2,19z"/>
	<path class="st0" d="M15.1,13.6c-0.4,0-0.6,0.3-0.6,0.6v0.1c0,0.4,0.3,0.6,0.6,0.6c0.4,0,0.6-0.3,0.6-0.6v-0.1
		C15.8,13.9,15.5,13.6,15.1,13.6z"/>
	<path class="st0" d="M12.6,15.1c-0.4,0-0.6,0.3-0.6,0.6v0.1c0,0.4,0.3,0.6,0.6,0.6c0.4,0,0.6-0.3,0.6-0.6v-0.1
		C13.2,15.4,12.9,15.1,12.6,15.1z"/>
	<path class="st0" d="M17,15.7c-0.4,0-0.6,0.3-0.6,0.6v0.1c0,0.4,0.3,0.6,0.6,0.6c0.4,0,0.6-0.3,0.6-0.6v-0.1
		C17.6,16,17.3,15.7,17,15.7z"/>
	<path class="st0" d="M18.8,7.9c-0.1,0-0.2-0.1-0.3-0.1c-0.1-0.1-1.1-0.8-1-1.9c0.1-1,0.6-1.5,1-1.8C18.8,3.8,19,3.6,19,3.1
		C19.1,2.2,18.5,2,18.5,2c-0.3-0.1-0.4-0.4-0.3-0.6c0.1-0.2,0.4-0.4,0.6-0.3c0.1,0,1.1,0.5,1.1,2c0.1,1-0.4,1.4-0.8,1.8
		c-0.4,0.3-0.6,0.5-0.6,1.1C18.5,6.5,19.1,7,19.1,7c0.2,0.2,0.3,0.5,0.1,0.7C19.1,7.8,18.9,7.9,18.8,7.9z"/>
	<path class="st0" d="M15.1,7.9c-0.1,0-0.2-0.1-0.3-0.1c-0.1-0.1-1.1-0.8-1-1.9c0.1-1,0.6-1.5,1-1.8c0.4-0.3,0.6-0.5,0.6-1.1
		C15.4,2.2,14.8,2,14.8,2c-0.3-0.2-0.4-0.4-0.3-0.7C14.6,1,14.9,0.9,15.1,1c0.1,0,1.1,0.5,1.1,2c-0.1,1.1-0.6,1.5-0.9,1.8
		c-0.4,0.3-0.6,0.5-0.6,1.1C14.6,6.5,15.3,7,15.3,7c0.2,0.2,0.3,0.5,0.1,0.7C15.4,7.8,15.2,7.9,15.1,7.9z"/>
	<path class="st0" d="M11.5,7.9c-0.1,0-0.2-0.1-0.3-0.1c-0.1-0.1-1.1-0.8-1-1.9c0.1-1,0.6-1.5,1-1.8c0.4-0.3,0.6-0.5,0.6-1.1
		C11.8,2.2,11.3,2,11.2,2C11,1.9,10.9,1.6,11,1.3C11.2,1,11.4,0.9,11.7,1c0.1,0,1.1,0.5,1.1,2c-0.1,1.1-0.6,1.5-0.9,1.8
		c-0.4,0.3-0.6,0.5-0.6,1.1C11.2,6.5,11.9,7,11.9,7c0.2,0.2,0.3,0.5,0.1,0.7C11.8,7.8,11.6,7.9,11.5,7.9z"/>
</g>
</svg>
