<?xml version="1.0" encoding="utf-8"?>
<!-- Generator: Adobe Illustrator 22.1.0, SVG Export Plug-In . SVG Version: 6.00 Build 0)  -->
<svg version="1.1" id="Слой_1" xmlns="http://www.w3.org/2000/svg" xmlns:xlink="http://www.w3.org/1999/xlink" x="0px" y="0px"
	 viewBox="0 0 30 30" style="enable-background:new 0 0 30 30;" xml:space="preserve">
<style type="text/css">
	.st0{fill:#BA131A;}
</style>
<path class="st0" d="M28.3,25l-6.1-6.1c0,0-0.1-0.1-0.1-0.1c1.2-1.8,1.9-4,1.9-6.3C24,6.2,18.9,1,12.5,1S1,6.2,1,12.5
	C1,18.9,6.2,24,12.5,24c2.3,0,4.5-0.7,6.3-1.9c0,0,0.1,0.1,0.1,0.1l6.1,6.1c0.9,0.9,2.4,0.9,3.3,0C29.2,27.4,29.2,25.9,28.3,25z
	 M12.5,20C8.4,20,5,16.7,5,12.5C5,8.4,8.4,5,12.5,5c4.2,0,7.5,3.4,7.5,7.5C20,16.7,16.7,20,12.5,20z"/>
</svg>
