<?xml version="1.0" encoding="utf-8"?>
<!-- Generator: Adobe Illustrator 23.0.2, SVG Export Plug-In . SVG Version: 6.00 Build 0)  -->
<svg version="1.1" id="Capa_1" xmlns="http://www.w3.org/2000/svg" xmlns:xlink="http://www.w3.org/1999/xlink" x="0px" y="0px"
	 viewBox="0 0 30 30" style="enable-background:new 0 0 30 30;" xml:space="preserve">
<path d="M15,1C7.3,1,1,7.3,1,15s6.3,14,14,14s14-6.3,14-14S22.7,1,15,1z M17.9,22.7c-0.7,0.3-1.3,0.5-1.7,0.6
	c-0.4,0.1-0.9,0.2-1.5,0.2c-0.9,0-1.6-0.2-2-0.6c-0.5-0.4-0.7-1-0.7-1.6c0-0.3,0-0.5,0.1-0.8c0-0.3,0.1-0.6,0.2-0.9l0.9-3.2
	c0.1-0.3,0.1-0.6,0.2-0.9c0.1-0.3,0.1-0.5,0.1-0.8c0-0.4-0.1-0.7-0.3-0.8c-0.2-0.2-0.5-0.2-1-0.2c-0.2,0-0.5,0-0.7,0.1
	S11,13.9,10.9,14l0.2-1c0.6-0.2,1.2-0.4,1.7-0.6c0.5-0.2,1-0.3,1.5-0.3c0.9,0,1.5,0.2,2,0.6c0.5,0.4,0.7,1,0.7,1.6
	c0,0.1,0,0.4,0,0.7s-0.1,0.7-0.2,1l-0.9,3.2c-0.1,0.3-0.1,0.5-0.2,0.9c-0.1,0.3-0.1,0.6-0.1,0.7c0,0.4,0.1,0.7,0.3,0.9
	c0.2,0.2,0.5,0.2,1,0.2c0.2,0,0.5,0,0.7-0.1c0.3-0.1,0.5-0.1,0.6-0.2L17.9,22.7z M17.8,9.8c-0.4,0.4-0.9,0.6-1.5,0.6
	s-1.1-0.2-1.5-0.6c-0.4-0.4-0.6-0.9-0.6-1.4c0-0.6,0.2-1,0.6-1.4c0.4-0.4,0.9-0.6,1.5-0.6s1.1,0.2,1.5,0.6s0.6,0.9,0.6,1.4
	C18.4,8.9,18.2,9.4,17.8,9.8z"/>
</svg>
