<?xml version="1.0" encoding="utf-8"?>
<!-- Generator: Adobe Illustrator 23.0.2, SVG Export Plug-In . SVG Version: 6.00 Build 0)  -->
<svg version="1.1" id="Capa_1" xmlns="http://www.w3.org/2000/svg" xmlns:xlink="http://www.w3.org/1999/xlink" x="0px" y="0px"
	 viewBox="0 0 30 30" width="30" height="30" style="enable-background:new 0 0 30 30;" xml:space="preserve">
<style type="text/css">
	.st0{fill:#BA131A;}
</style>
<path class="st0" d="M21.9,10.9c-0.5-0.5-0.8-1-1.2-1.5c-0.1-0.1-0.3-0.2-0.5,0C17.6,11.7,6.5,26.3,5.5,28.8c-0.1,0.2,0,0.2,0.2,0.1
	c5.5-6,10.9-11.8,16.2-17.6C22,11.2,22,11,21.9,10.9z M4,28c0,0.2,0.2,0.2,0.3,0c4.6-6.8,8.9-13.4,13.4-19.9c0.1-0.2,0-0.3-0.1-0.4
	c-0.7-0.3-1.3-0.6-2-0.9c-0.2-0.1-0.4,0-0.5,0.2c-3.8,6.8-7.5,13.4-11.2,20.1C3.8,27.2,3.9,27.5,4,28z M18.9,1
	c-0.2-0.1-0.4,0-0.4,0.1c-0.4,0.7-0.8,1.4-1.1,2c-1.3,2.3-1.4,2.4,1,3.4c0.2,0.1,0.4,0,0.5-0.2c0.8-1.1,1.5-2.3,2.4-3.6
	c0.1-0.2,0.1-0.4-0.1-0.4C20.3,1.9,19.6,1.5,18.9,1z M23.7,4.8c-2.9,2.8-3,3.3-0.7,4.9c0.1,0.1,0.4,0.1,0.5-0.1
	c0.8-0.9,1.7-1.8,2.6-2.8c0.1-0.1,0.1-0.3,0-0.5c-0.6-0.6-1.2-1.1-1.8-1.6C24.1,4.6,23.8,4.6,23.7,4.8z"/>
</svg>
