<?xml version="1.0" encoding="utf-8"?>
<!-- Generator: Adobe Illustrator 22.1.0, SVG Export Plug-In . SVG Version: 6.00 Build 0)  -->
<svg version="1.1" id="Слой_1" xmlns="http://www.w3.org/2000/svg" xmlns:xlink="http://www.w3.org/1999/xlink" x="0px" y="0px"
	 viewBox="0 0 30 30" style="enable-background:new 0 0 30 30;" xml:space="preserve">
<style type="text/css">
	.st0{fill:#B91520;}
</style>
<path class="st0" d="M9.7,29c-1.9-3.9-0.9-6.1,0.6-8.2c1.6-2.3,2-4.6,2-4.6s1.2,1.6,0.7,4.1c2.2-2.4,2.6-6.3,2.3-7.8
	c4.9,3.4,7,10.9,4.2,16.4c15.1-8.5,3.8-21.3,1.8-22.8c0.7,1.4,0.8,3.9-0.5,5.1c-2.4-8.5-8-10.2-8-10.2c0.7,4.4-2.4,9.2-5.3,12.8
	c-0.1-1.8-0.2-3-1.1-4.6c-0.2,3.2-2.6,5.8-3.3,9C2.2,22.5,3.7,25.7,9.7,29z"/>
</svg>
