<?xml version="1.0" encoding="utf-8"?>
<!-- Generator: Adobe Illustrator 22.1.0, SVG Export Plug-In . SVG Version: 6.00 Build 0)  -->
<svg version="1.1" id="Capa_1" xmlns="http://www.w3.org/2000/svg" xmlns:xlink="http://www.w3.org/1999/xlink" x="0px" y="0px"
	 viewBox="0 0 30 30" style="enable-background:new 0 0 30 30;" xml:space="preserve">
<style type="text/css">
	.st0{fill:#BB1018;}
</style>
<g>
	<path class="st0" d="M15,23.3c1.1,0,2-0.8,2.1-1.9l1.4-16.6c0.1-1-0.2-1.9-0.9-2.6C16.9,1.4,16,1,15,1s-1.9,0.4-2.5,1.1
		c-0.7,0.7-1,1.7-0.9,2.6l1.4,16.6C13,22.5,13.9,23.3,15,23.3z"/>
	<path class="st0" d="M15,24.5c-1.2,0-2.2,1-2.2,2.2c0,1.2,1,2.2,2.2,2.2c1.2,0,2.2-1,2.2-2.2C17.2,25.5,16.2,24.5,15,24.5z"/>
</g>
</svg>
