<?xml version="1.0" encoding="utf-8"?>
<!-- Generator: Adobe Illustrator 22.1.0, SVG Export Plug-In . SVG Version: 6.00 Build 0)  -->
<svg version="1.1" id="Слой_1" xmlns="http://www.w3.org/2000/svg" xmlns:xlink="http://www.w3.org/1999/xlink" x="0px" y="0px"
	 viewBox="0 0 30 30" style="enable-background:new 0 0 30 30;" xml:space="preserve">
<path d="M17.7,19.9h-0.5v-7.1c0-0.3-0.2-0.5-0.5-0.5h-4.4c-0.3,0-0.5,0.2-0.5,0.5V15c0,0.3,0.2,0.5,0.5,0.5h0.5v4.4h-0.5
	c-0.3,0-0.5,0.2-0.5,0.5v2.2c0,0.3,0.2,0.5,0.5,0.5h5.5c0.3,0,0.5-0.2,0.5-0.5v-2.2C18.3,20.2,18,19.9,17.7,19.9z M17.2,22.1h-4.4
	V21h0.5c0.3,0,0.5-0.2,0.5-0.5V15c0-0.3-0.2-0.5-0.5-0.5h-0.5v-1.1h3.3v7.1c0,0.3,0.2,0.5,0.5,0.5h0.5V22.1z"/>
<path d="M15,11.2c1.2,0,2.2-1,2.2-2.2s-1-2.2-2.2-2.2s-2.2,1-2.2,2.2S13.8,11.2,15,11.2z M15,7.9c0.6,0,1.1,0.5,1.1,1.1
	c0,0.6-0.5,1.1-1.1,1.1c-0.6,0-1.1-0.5-1.1-1.1C13.9,8.4,14.4,7.9,15,7.9z"/>
<path d="M15,1C7.5,1,1,7.4,1,15c0,2.6,0.7,5.3,2,7.4l-2,5.9c-0.1,0.2,0,0.4,0.1,0.6C1.3,29,1.5,29,1.7,29l5.9-2c2.1,1.2,4.8,2,7.4,2
	c7.5,0,14-6.4,14-14C29,7.5,22.6,1,15,1z M15,27.9c-2.5,0-5.1-0.7-7-2c-0.1-0.1-0.3-0.1-0.5-0.1l-5.1,1.7l1.7-5.1
	c0.1-0.2,0-0.3-0.1-0.5c-1.2-1.9-2-4.6-2-7C2.1,8,8,2.1,15,2.1S27.9,8,27.9,15S22,27.9,15,27.9z"/>
</svg>
