<?xml version="1.0" encoding="utf-8"?>
<!-- Generator: Adobe Illustrator 22.1.0, SVG Export Plug-In . SVG Version: 6.00 Build 0)  -->
<svg version="1.1" id="Layer_1" xmlns="http://www.w3.org/2000/svg" xmlns:xlink="http://www.w3.org/1999/xlink" x="0px" y="0px"
	 viewBox="0 0 30 30" style="enable-background:new 0 0 30 30;" xml:space="preserve">
<style type="text/css">
	.st0{fill:#BA131A;}
</style>
<g>
	<g>
		<g>
			<path class="st0" d="M11.7,25.7C11.7,25.7,11.7,25.7,11.7,25.7c0,1.9,1.5,3.3,3.3,3.3s3.3-1.5,3.3-3.3c0,0,0,0,0,0H11.7z"/>
			<path class="st0" d="M25.6,21.5l-3-4.4c0-1.3,0-4.6,0-5.5c0-3.7-2.6-6.8-6.1-7.5V2.5C16.5,1.7,15.8,1,15,1s-1.5,0.7-1.5,1.5v1.7
				C10,4.9,7.4,8,7.4,11.6c0,1.4,0,4.6,0,5.5l-3,4.4c-0.3,0.5-0.3,1.1-0.1,1.6c0.3,0.5,0.8,0.8,1.3,0.8h18.7c0.6,0,1.1-0.3,1.3-0.8
				C25.9,22.6,25.9,22,25.6,21.5z"/>
		</g>
	</g>
</g>
</svg>
