<?xml version="1.0" encoding="utf-8"?>
<!-- Generator: Adobe Illustrator 22.1.0, SVG Export Plug-In . SVG Version: 6.00 Build 0)  -->
<svg version="1.1" id="Слой_1" xmlns="http://www.w3.org/2000/svg" xmlns:xlink="http://www.w3.org/1999/xlink" x="0px" y="0px"
	 viewBox="0 0 18 16" style="enable-background:new 0 0 18 16;" xml:space="preserve">
<style type="text/css">
	.st0{fill:#B2B2B7;}
</style>
<path id="Иконка_Оставить_отзыв_" class="st0" d="M9.4,1.2l2,4.4L16.6,6C16.8,6,17,6.2,17,6.4
	c0,0.1,0,0.2-0.1,0.3l-3.9,3.1l1.2,4.7c0,0.2-0.1,0.4-0.3,0.5c-0.1,0-0.2,0-0.3-0.1L9,12.5l-4.5,2.5C4.3,15.1,4.1,15,4,14.8
	c-0.1-0.1-0.1-0.2-0.1-0.3l1.2-4.7L1.1,6.7C1,6.6,1,6.3,1.1,6.2C1.2,6.1,1.3,6,1.4,6l5.2-0.4l2-4.4C8.7,1,9,0.9,9.2,1
	C9.3,1.1,9.3,1.1,9.4,1.2z"/>
</svg>
