<?xml version="1.0" encoding="utf-8"?>
<svg version="1.1" id="Слой_1" xmlns="http://www.w3.org/2000/svg" xmlns:xlink="http://www.w3.org/1999/xlink" x="0px" y="0px"
	 viewBox="0 0 37 39" style="enable-background:new 0 0 37 39;" xml:space="preserve" preserveAspectRatio="none">
<style type="text/css">
	.st0{fill:#E8E8E8;}
</style>
<path class="st0" d="M35,23l-2.6,2.6v-3.4l0.9-0.9c0.2-0.2,0.3-0.5,0.3-0.6c0-0.1,0-0.4-0.3-0.6L17.1,3.7c-0.2-0.2-0.5-0.3-0.6-0.3
	c-0.1,0-0.4,0-0.6,0.3l-5.1,5.1l8.3,8.4h-5.4l-5.6-5.7l-1.2,1.1c-0.2,0.2-0.3,0.5-0.3,0.6c0,0.1,0,0.4,0.3,0.6l3.2,3.2H6.7l-1.5-1.5
	c-1.3-1.3-1.3-3.4,0-4.7l8.9-9c0.6-0.6,1.5-1,2.3-1c0.8,0,1.7,0.3,2.3,1L35,18.3C36.3,19.6,36.3,21.7,35,23z M27.4,18.7
	c1.8,0,3.2,1.5,3.2,3.3v8.8H1V22c0-1.8,1.6-3.3,3.4-3.3H27.4z M3.4,25.4c0,1.3,1.1,2.4,2.4,2.4c0.6,0,1.2-0.3,1.7-0.7
	c0.4,0.4,1,0.7,1.7,0.7c1.3,0,2.4-1.1,2.4-2.4c0-1.3-1.1-2.4-2.4-2.4c-0.6,0-1.2,0.3-1.7,0.7C7,23.2,6.4,23,5.7,23
	C4.4,23,3.4,24.1,3.4,25.4z M30.6,34.7c0,1.8-1.4,3.3-3.2,3.3h-23C2.6,38,1,36.5,1,34.7v-0.2h29.6V34.7z"/>
</svg>
