<?xml version="1.0" encoding="utf-8"?>
<!-- Generator: Adobe Illustrator 23.0.2, SVG Export Plug-In . SVG Version: 6.00 Build 0)  -->
<svg version="1.1" id="Capa_1" xmlns="http://www.w3.org/2000/svg" xmlns:xlink="http://www.w3.org/1999/xlink" x="0px" y="0px"
	 viewBox="0 0 30 30" style="enable-background:new 0 0 30 30;" xml:space="preserve">
<style type="text/css">
	.st0{fill:#BA131A;}
</style>
<path class="st0" d="M6.6,13.1c2.2,4.4,5.9,7.9,10.3,10.3l3.4-3.4c0.5-0.5,1.1-0.6,1.6-0.3c1.7,0.6,3.6,0.9,5.6,0.9
	c0.9,0,1.6,0.6,1.6,1.6v5.3c0,0.9-0.6,1.6-1.6,1.6C12.8,29,1,17.2,1,2.6C1,1.6,1.6,1,2.6,1H8c0.9,0,1.6,0.6,1.6,1.6
	c0,1.9,0.3,3.7,0.9,5.6c0.2,0.5,0,1.1-0.3,1.6L6.6,13.1z"/>
</svg>
