<?xml version="1.0" encoding="utf-8"?>
<!-- Generator: Adobe Illustrator 23.0.2, SVG Export Plug-In . SVG Version: 6.00 Build 0)  -->
<svg version="1.1" id="Capa_1" xmlns="http://www.w3.org/2000/svg" xmlns:xlink="http://www.w3.org/1999/xlink" x="0px" y="0px"
	 viewBox="0 0 50 45" width="50" height="45" style="enable-background:new 0 0 50 45;" xml:space="preserve">
<path id="XMLID_971_" d="M45.8,16.3c0.3-0.8,0.4-1.6,0.4-2.5c0-4.5-3.6-8.3-8.3-8.3c-0.1,0-0.2,0-0.3,0c-1.5-2.2-4-3.5-6.7-3.5
	s-5.2,1.3-6.7,3.5c-0.1,0-0.2,0-0.3,0c-1.9,0-3.8,0.7-5.3,1.9V1.2h-1.1c-4,0-7.4,2.7-8.4,6.4L7,5.2L6.3,5.9C3.5,8.7,3,13,4.9,16.4H1
	v1.1c0,8.6,4.6,16.6,12.2,20.8v5.5h23.7v-5.5C44.4,34,49,26,49,17.4v-1.1H45.8z M24,7.7c0.2,0,0.5,0,0.7,0l0.7,0.1l0.3-0.6
	c1.2-1.8,3.2-3,5.4-3s4.2,1.2,5.4,3.1l0.3,0.6l0.7-0.1c0.2,0,0.5,0,0.7,0c3.5,0,6.2,2.8,6.2,6.2c0,0.9-0.2,1.7-0.5,2.5h-7l3.7-3.7
	l-1.4-1.4l-5.2,5.2h-1.7V7.8h-2v8.5h-1.7l-5.4-5.2l-1.4,1.4l3.7,3.7h-6.6v-5.8C19.8,8.8,21.8,7.7,24,7.7z M16.7,3.3v11.6l-5.6-5.6
	C11.4,6.3,13.7,3.7,16.7,3.3z M7,8.1l8.3,8.3H7.4C5.4,14,5.2,10.5,7,8.1z M15.2,41.7v-3.1h19.7v3.1H15.2z M35.6,36.7H14.4
	C7.7,32.9,3.4,26,3,18.4h43.9C46.6,26,42.3,32.9,35.6,36.7z"/>
</svg>
