<?xml version="1.0" encoding="utf-8"?>
<!-- Generator: Adobe Illustrator 23.0.2, SVG Export Plug-In . SVG Version: 6.00 Build 0)  -->
<svg version="1.1" id="Capa_1" xmlns="http://www.w3.org/2000/svg" xmlns:xlink="http://www.w3.org/1999/xlink" x="0px" y="0px"
	 viewBox="0 0 30 30" style="enable-background:new 0 0 30 30;" xml:space="preserve">
<style type="text/css">
	.st0{fill:#BB1018;}
</style>
<g>
	<path class="st0" d="M9.8,1H1v8.8h8.8V1z M8,8H2.8V2.8H8V8z"/>
	<rect x="4.5" y="4.5" class="st0" width="1.8" height="1.8"/>
	<path class="st0" d="M20.3,1v8.8H29V1H20.3z M27.3,8H22V2.8h5.3V8z"/>
	<rect x="23.8" y="4.5" class="st0" width="1.8" height="1.8"/>
	<path class="st0" d="M1,29h8.8v-8.8H1V29z M2.8,22H8v5.3H2.8V22z"/>
	<rect x="4.5" y="23.8" class="st0" width="1.8" height="1.8"/>
	<rect x="15" y="1" class="st0" width="3.5" height="1.8"/>
	<polygon class="st0" points="15,8 16.8,8 16.8,6.3 18.5,6.3 18.5,4.5 13.3,4.5 13.3,2.8 11.5,2.8 11.5,4.5 11.5,5.4 11.5,6.3 
		15,6.3 	"/>
	<rect x="11.5" y="8" class="st0" width="1.8" height="1.8"/>
	<polygon class="st0" points="18.5,9.8 16.8,9.8 16.8,11.5 11.5,11.5 11.5,13.3 18.5,13.3 	"/>
	<polygon class="st0" points="2.8,16.8 4.5,16.8 4.5,15 2.8,15 2.8,11.5 1,11.5 1,18.5 2.8,18.5 	"/>
	<rect x="4.5" y="11.5" class="st0" width="1.8" height="1.8"/>
	<polygon class="st0" points="11.5,18.5 15,18.5 15,16.8 13.3,16.8 13.3,15 9.8,15 9.8,11.5 8,11.5 8,15 6.3,15 6.3,18.5 8,18.5 
		8,16.8 8.9,16.8 9.8,16.8 11.5,16.8 	"/>
	<rect x="16.8" y="15" class="st0" width="1.8" height="3.5"/>
	<polygon class="st0" points="16.8,20.3 11.5,20.3 11.5,22 15,22 15,27.3 11.5,27.3 11.5,29 16.8,29 16.8,27.3 20.3,27.3 20.3,25.5 
		16.8,25.5 	"/>
	<rect x="11.5" y="23.8" class="st0" width="1.8" height="1.8"/>
	<rect x="18.5" y="20.3" class="st0" width="1.8" height="3.5"/>
	<polygon class="st0" points="27.3,23.8 22,23.8 22,29 23.8,29 23.8,25.5 27.3,25.5 	"/>
	<rect x="25.5" y="27.3" class="st0" width="3.5" height="1.8"/>
	<rect x="27.3" y="20.3" class="st0" width="1.8" height="1.8"/>
	<polygon class="st0" points="22,22 23.8,22 23.8,16.8 20.3,16.8 20.3,18.5 22,18.5 	"/>
	<polygon class="st0" points="25.5,13.3 23.8,13.3 23.8,11.5 22,11.5 22,13.3 20.3,13.3 20.3,15 27.3,15 27.3,13.3 29,13.3 29,11.5 
		25.5,11.5 	"/>
	<rect x="25.5" y="16.8" class="st0" width="3.5" height="1.8"/>
</g>
</svg>
