<?xml version="1.0" encoding="utf-8"?>
<!-- Generator: Adobe Illustrator 22.1.0, SVG Export Plug-In . SVG Version: 6.00 Build 0)  -->
<svg version="1.1" id="Capa_1" xmlns="http://www.w3.org/2000/svg" xmlns:xlink="http://www.w3.org/1999/xlink" x="0px" y="0px"
	 viewBox="0 0 30 30" style="enable-background:new 0 0 30 30;" xml:space="preserve">
<style type="text/css">
	.st0{fill:#010002;}
</style>
<g>
	<g id="calendar_1_">
		<path class="st0" d="M26.7,3.6h-3.8V1.9C22.9,1.4,22.5,1,22,1s-0.9,0.4-0.9,0.9v1.8h-5.3V1.9C15.9,1.4,15.5,1,15,1
			s-0.9,0.4-0.9,0.9v1.8H8.9V1.9C8.9,1.4,8.5,1,8,1S7.1,1.4,7.1,1.9v1.8H3.3C2,3.6,1,4.7,1,6v20.7C1,28,2,29,3.3,29h23.3
			c1.3,0,2.3-1,2.3-2.3V6C29,4.7,28,3.6,26.7,3.6z M27.3,26.7c0,0.3-0.3,0.6-0.6,0.6H3.3c-0.3,0-0.6-0.3-0.6-0.6V6
			c0-0.3,0.3-0.6,0.6-0.6h3.8v1.8C7.1,7.6,7.5,8,8,8s0.9-0.4,0.9-0.9V5.4h5.3v1.8C14.1,7.6,14.5,8,15,8s0.9-0.4,0.9-0.9V5.4h5.3v1.8
			C21.1,7.6,21.5,8,22,8s0.9-0.4,0.9-0.9V5.4h3.8c0.3,0,0.6,0.3,0.6,0.6V26.7z"/>
		<rect x="7.1" y="11.5" class="st0" width="3.5" height="2.6"/>
		<rect x="7.1" y="15.9" class="st0" width="3.5" height="2.6"/>
		<rect x="7.1" y="20.3" class="st0" width="3.5" height="2.6"/>
		<rect x="13.3" y="20.3" class="st0" width="3.5" height="2.6"/>
		<rect x="13.3" y="15.9" class="st0" width="3.5" height="2.6"/>
		<rect x="13.3" y="11.5" class="st0" width="3.5" height="2.6"/>
		<rect x="19.4" y="20.3" class="st0" width="3.5" height="2.6"/>
		<rect x="19.4" y="15.9" class="st0" width="3.5" height="2.6"/>
		<rect x="19.4" y="11.5" class="st0" width="3.5" height="2.6"/>
	</g>
</g>
</svg>
