<?xml version="1.0" encoding="utf-8"?>
<svg version="1.1" id="Слой_1" xmlns="http://www.w3.org/2000/svg" xmlns:xlink="http://www.w3.org/1999/xlink" x="0px" y="0px"
	 viewBox="0 0 42 38" style="enable-background:new 0 0 42 38;" xml:space="preserve" preserveAspectRatio="none">
<style type="text/css">
	.st0{fill:#E8E8E8;}
</style>
<path class="st0" d="M29.4,37c-6.4,0-11.6-2.4-11.6-5.3v-1.2c0-0.4,0.1-0.7,0.2-1.1c1.1,2.4,5.8,4.2,11.4,4.2
	c5.6,0,10.3-1.8,11.4-4.2c0.2,0.4,0.2,0.7,0.2,1.1v1.2C41,34.6,35.8,37,29.4,37z M29.4,31c-6.4,0-11.6-2.4-11.6-5.3v-1.2
	c0-0.4,0.1-0.7,0.2-1.1c1.1,2.4,5.8,4.2,11.4,4.2c5.6,0,10.3-1.8,11.4-4.2c0.2,0.4,0.2,0.7,0.2,1.1v1.2C41,28.6,35.8,31,29.4,31z
	 M29.4,24.8c-6.4,0-11.6-2.4-11.6-5.3v-1.2c0-0.4,0.1-0.7,0.2-1.1c1.1,2.4,5.8,4.2,11.4,4.2c5.6,0,10.3-1.8,11.4-4.2
	c0.2,0.4,0.2,0.7,0.2,1.1v1.2C41,22.4,35.8,24.8,29.4,24.8z M29.4,18.8c-6.4,0-11.6-2.4-11.6-5.3v-1.2c0-0.4,0.1-0.7,0.2-1.1
	c1.1,2.4,5.8,4.2,11.4,4.2c5.6,0,10.3-1.8,11.4-4.2c0.2,0.4,0.2,0.7,0.2,1.1v1.2C41,16.4,35.8,18.8,29.4,18.8z M29.4,12.8
	c-6.4,0-11.6-2.4-11.6-5.3V6.3C17.8,3.4,23,1,29.4,1S41,3.4,41,6.3v1.2C41,10.4,35.8,12.8,29.4,12.8z M1,28.5v-1.2
	c0-0.4,0.1-0.7,0.2-1.1c1.1,2.4,5.8,4.2,11.4,4.2c1.1,0,2.2-0.1,3.2-0.2v0.3v1.2c0,0.6,0.1,1.3,0.4,1.9c-1.2,0.2-2.4,0.3-3.7,0.3
	C6.2,33.8,1,31.4,1,28.5z M1,22.5v-1.2c0-0.4,0.1-0.7,0.2-1.1c1.1,2.4,5.8,4.2,11.4,4.2c1.1,0,2.2-0.1,3.2-0.2v3.3
	c-1,0.1-2.1,0.2-3.2,0.2C6.2,27.8,1,25.4,1,22.5z M1,16.5v-1.2C1,12.4,6.2,10,12.6,10c1.1,0,2.2,0.1,3.2,0.2v11.4
	c-1,0.1-2.1,0.2-3.2,0.2C6.2,21.9,1,19.5,1,16.5z"/>
</svg>
