<?xml version="1.0" encoding="utf-8"?>
<!-- Generator: Adobe Illustrator 22.1.0, SVG Export Plug-In . SVG Version: 6.00 Build 0)  -->
<svg version="1.1" id="Capa_1" xmlns="http://www.w3.org/2000/svg" xmlns:xlink="http://www.w3.org/1999/xlink" x="0px" y="0px"
	 viewBox="0 0 30 30" width="30px" height="30px" preserveAspectRatio="none">
<style type="text/css">
	.st0{fill:#BA131A;}
</style>
<g>
	<path class="st0" d="M28.1,6.5L19.6,15l8.5,8.5c1.3,1.3,1.3,3.3,0,4.6c-0.6,0.6-1.5,0.9-2.3,0.9c-0.8,0-1.7-0.3-2.3-0.9L15,19.6
		l-8.5,8.5C5.9,28.7,5.1,29,4.2,29c-0.8,0-1.7-0.3-2.3-0.9c-1.3-1.3-1.3-3.3,0-4.6l8.5-8.5L1.9,6.5c-1.3-1.3-1.3-3.3,0-4.6
		c1.3-1.3,3.3-1.3,4.6,0l8.5,8.5l8.5-8.5c1.3-1.3,3.3-1.3,4.6,0C29.3,3.2,29.3,5.3,28.1,6.5z"/>
</g>
</svg>
