<svg id="Capa_1" xmlns="http://www.w3.org/2000/svg" viewBox="-49 141 20 20"><style>.st0{fill:#a5a5a5;}</style><path class="st0" d="M-30 156.2c0 .3-.1.5-.3.8l-2.5 2.5c-.1.1-.3.2-.4.3-.2.1-.4.1-.5.2H-34c-.2 0-.6 0-1.2-.1-.5-.1-1.2-.3-2-.6s-1.7-.8-2.7-1.5c-1-.6-2-1.5-3.2-2.7-.9-.9-1.6-1.7-2.2-2.5-.6-.8-1.1-1.5-1.4-2.2-.4-.7-.6-1.3-.8-1.8-.2-.6-.3-1-.4-1.4-.1-.4-.1-.7-.1-.9v-.4c0-.2.1-.4.2-.5.1-.2.2-.3.3-.4l2.5-2.5c.2-.2.4-.3.6-.3.2 0 .3 0 .4.1s.2.2.3.4l2 3.9c.1.2.1.4.1.7l-.3.6-.9.9s0 .1-.1.1v.1l.3.9c.2.3.4.7.7 1.1.3.4.8.9 1.4 1.5.6.6 1.1 1 1.5 1.4.4.3.8.6 1.1.7.3.2.5.2.7.3H-36.9c.1 0 .1 0 .1-.1l1.1-1.1c.2-.2.5-.3.8-.3.2 0 .4 0 .5.1l3.7 2.2c.5 0 .6.2.7.5z"/></svg>