<?xml version="1.0" encoding="utf-8"?>
<!-- Generator: Adobe Illustrator 22.1.0, SVG Export Plug-In . SVG Version: 6.00 Build 0)  -->
<svg version="1.1" id="Capa_1" xmlns="http://www.w3.org/2000/svg" xmlns:xlink="http://www.w3.org/1999/xlink" x="0px" y="0px"
	 viewBox="0 0 30 30" style="enable-background:new 0 0 30 30;" xml:space="preserve">
<style type="text/css">
	.st0{fill:#BA131A;}
</style>
<g>
	<g>
		<path class="st0" d="M27.3,8.9h-5.5c0.4-0.3,0.7-0.5,1-0.8c1.4-1.4,1.4-3.7,0-5.1c-1.4-1.4-3.8-1.4-5.1,0
			c-0.8,0.8-2.8,3.9-2.5,5.9h-0.1c0.3-2.1-1.7-5.2-2.5-5.9c-1.4-1.4-3.8-1.4-5.1,0c-1.4,1.4-1.4,3.7,0,5.1c0.2,0.2,0.6,0.5,1,0.8
			H2.8c-1,0-1.8,0.8-1.8,1.8V15c0,0.5,0.4,0.9,0.9,0.9h0.9v10.5c0,1,0.8,1.8,1.8,1.8h21c1,0,1.8-0.8,1.8-1.8V15.9h0.9
			c0.5,0,0.9-0.4,0.9-0.9v-4.4C29,9.6,28.2,8.9,27.3,8.9z M8.6,4.2c0.4-0.4,0.8-0.6,1.3-0.6c0.5,0,1,0.2,1.3,0.6
			c1.2,1.2,2.4,4.2,1.9,4.6c0,0-0.1,0.1-0.3,0.1c-1.2,0-3.5-1.3-4.3-2C7.8,6.1,7.8,4.9,8.6,4.2z M14.1,26.4H4.5V15.9h9.6V26.4z
			 M14.1,14.1H2.8v-3.5h10.1h1.3V14.1z M18.8,4.2c0.7-0.7,1.9-0.7,2.7,0c0.7,0.7,0.7,1.9,0,2.7c-0.8,0.8-3.1,2-4.3,2
			c-0.3,0-0.3-0.1-0.3-0.1C16.4,8.4,17.6,5.3,18.8,4.2z M25.5,26.4h-9.6V15.9h9.6V26.4z M27.3,14.1H15.9v-3.5h1.3h10.1V14.1z"/>
	</g>
</g>
</svg>
