<?xml version="1.0" encoding="utf-8"?>
<svg version="1.1" id="Capa_1" xmlns="http://www.w3.org/2000/svg" xmlns:xlink="http://www.w3.org/1999/xlink" x="0px" y="0px"
	 width="30" height="30" viewBox="0 0 30 30" style="enable-background:new 0 0 30 30;" xml:space="preserve">
<style type="text/css">
	.st0{fill:#B2B2B7;}
</style>
<path class="st0" d="M27.9,9.6c-1.5-3.4-4-5.9-7.5-7.4C18.7,1.4,16.9,1,15,1s-3.7,0.4-5.4,1.1c-3.4,1.5-6,4-7.4,7.4
	C1.4,11.3,1,13.1,1,15s0.4,3.7,1.1,5.5c1.5,3.4,4,6,7.4,7.4c1.7,0.7,3.5,1.1,5.4,1.1c1.9,0,3.7-0.4,5.4-1.1c3.5-1.5,6-4,7.5-7.4
	c0.7-1.7,1.1-3.6,1.1-5.5C29,13.1,28.6,11.3,27.9,9.6z M20.2,20.4c-0.3,0.3-0.9,0.3-1.2,0l-4.6-4.6c-0.2-0.2-0.2-0.4-0.2-0.7V15V6.9
	C14.2,6.4,14.6,6,15,6c0.5,0,0.9,0.4,0.9,0.9v8l4.3,4.3C20.5,19.5,20.6,20,20.2,20.4z"/>
</svg>
