<svg width="65" height="65" viewBox="0 0 65 65" fill="none" xmlns="http://www.w3.org/2000/svg">
<path d="M46.1595 39.9256C45.5773 39.4042 44.6829 39.4551 44.1643 40.0358C41.2167 43.3296 36.9662 45.2174 32.4996 45.2174C28.0344 45.2174 23.7825 43.3296 20.8349 40.0358C20.3135 39.4551 19.4219 39.4042 18.8397 39.9256C18.2575 40.4456 18.2095 41.3386 18.7295 41.9208C22.2126 45.8123 27.2318 48.0435 32.4996 48.0435C37.7688 48.0435 42.788 45.8109 46.2697 41.9208C46.7897 41.3386 46.7402 40.4456 46.1595 39.9256Z" fill="#EEDCC6"/>
<path d="M32.5 0C14.5798 0 0 14.5798 0 32.5C0 50.4202 14.5798 65 32.5 65C50.4202 65 65 50.4202 65 32.5C65 14.5798 50.4202 0 32.5 0ZM32.5 62.1739C16.137 62.1739 2.82609 48.863 2.82609 32.5C2.82609 16.137 16.137 2.82609 32.5 2.82609C48.863 2.82609 62.1739 16.137 62.1739 32.5C62.1739 48.863 48.863 62.1739 32.5 62.1739Z" fill="#EEDCC6"/>
<path d="M43.8035 22.6086C39.9077 22.6086 36.7383 25.7781 36.7383 29.6739C36.7383 30.4539 37.3713 31.0869 38.1513 31.0869C38.9313 31.0869 39.5644 30.4539 39.5644 29.6739C39.5644 27.3367 41.4663 25.4347 43.8035 25.4347C46.1407 25.4347 48.0426 27.3367 48.0426 29.6739C48.0426 30.4539 48.6757 31.0869 49.4557 31.0869C50.2357 31.0869 50.8687 30.4539 50.8687 29.6739C50.8687 25.7781 47.6993 22.6086 43.8035 22.6086Z" fill="#EEDCC6"/>
<path d="M25.4352 29.6739C25.4352 30.4539 26.0682 31.0869 26.8482 31.0869C27.6282 31.0869 28.2613 30.4539 28.2613 29.6739C28.2613 25.7781 25.0918 22.6086 21.1961 22.6086C17.3003 22.6086 14.1309 25.7781 14.1309 29.6739C14.1309 30.4539 14.7639 31.0869 15.5439 31.0869C16.3239 31.0869 16.9569 30.4539 16.9569 29.6739C16.9569 27.3367 18.8589 25.4347 21.1961 25.4347C23.5332 25.4347 25.4352 27.3367 25.4352 29.6739Z" fill="#EEDCC6"/>
</svg>
