<?xml version="1.0" encoding="utf-8"?>
<svg version="1.1" id="Слой_1" xmlns="http://www.w3.org/2000/svg" xmlns:xlink="http://www.w3.org/1999/xlink" x="0px" y="0px"
	 viewBox="0 0 50 39" style="enable-background:new 0 0 50 39;" xml:space="preserve" preserveAspectRatio="none">
<style type="text/css">
	.st0{fill:#E8E8E8;}
</style>
<path class="st0" d="M48.4,30.2h-1.5v-8.5c0-1-0.3-2-0.8-2.8l-3.8-5.7c-0.9-1.4-2.5-2.2-4.1-2.2h-5.8c-0.7,0-1.2,0.6-1.2,1.3v17.9
	h-9.5c0.9,0.8,1.5,1.9,1.7,3.2h10.1c0.4-2.5,2.5-4.4,5-4.4c2.5,0,4.7,1.9,5,4.4h5c0.3,0,0.6-0.3,0.6-0.6v-1.9
	C49,30.5,48.7,30.2,48.4,30.2z M42.2,20h-7.7c-0.3,0-0.6-0.3-0.6-0.6V15c0-0.3,0.3-0.6,0.6-0.6h4.7c0.2,0,0.4,0.1,0.5,0.3l3,4.3
	C43,19.4,42.7,20,42.2,20z M38.4,30.2c-2.1,0-3.8,1.8-3.8,3.9c0,2.2,1.7,3.9,3.8,3.9c2.1,0,3.8-1.8,3.8-3.9
	C42.2,31.9,40.5,30.2,38.4,30.2z M38.4,36c-1.1,0-1.9-0.9-1.9-2c0-1.1,0.9-1.9,1.9-1.9c1.1,0,1.9,0.9,1.9,1.9
	C40.3,35.2,39.4,36,38.4,36z M6.4,30.2c-0.3,0-0.6,0.3-0.6,0.6v1.9c0,0.3,0.3,0.6,0.6,0.6h6.9c0.2-1.3,0.8-2.4,1.7-3.2H6.4L6.4,30.2
	z M18.3,30.2c-2.1,0-3.8,1.8-3.8,3.9c0,2.2,1.7,3.9,3.8,3.9c2.1,0,3.8-1.8,3.8-3.9C22.1,31.9,20.4,30.2,18.3,30.2z M18.3,36
	c-1.1,0-1.9-0.9-1.9-2c0-1.1,0.9-1.9,1.9-1.9c1.1,0,1.9,0.9,1.9,1.9C20.2,35.2,19.3,36,18.3,36z M27.5,7.1h-7.2
	c0.4,1.1,0.5,2.2,0.5,3.4c0,5.9-4.7,10.7-10.6,10.7c-1.1,0-2.1-0.2-3.1-0.5v6.9c0,0.3,0.3,0.6,0.6,0.6h20.9c0.3,0,0.6-0.3,0.6-0.6V9
	C29.4,8,28.5,7.1,27.5,7.1z M10.3,1C5.2,1,1,5.2,1,10.5S5.2,20,10.3,20c5.2,0,9.3-4.2,9.3-9.5S15.5,1,10.3,1z M10.3,17.8
	c-4,0-7.2-3.3-7.2-7.3c0-4,3.2-7.3,7.2-7.3c4,0,7.2,3.3,7.2,7.3C17.5,14.5,14.3,17.8,10.3,17.8z M13.1,12c-0.1,0-0.2,0-0.2,0l-3-0.8
	c-0.4-0.1-0.7-0.5-0.7-0.9V5.6c0-0.5,0.4-0.9,0.9-0.9C10.6,4.6,11,5,11,5.6v4l2.3,0.6c0.5,0.1,0.8,0.7,0.7,1.2
	C13.9,11.8,13.5,12,13.1,12z"/>
</svg>
