<?xml version="1.0" encoding="utf-8"?>
<!-- Generator: Adobe Illustrator 23.0.2, SVG Export Plug-In . SVG Version: 6.00 Build 0)  -->
<svg version="1.1" id="Layer_1" xmlns="http://www.w3.org/2000/svg" xmlns:xlink="http://www.w3.org/1999/xlink" x="0px" y="0px"
	 viewBox="0 0 30 30" width="30" height="30" style="enable-background:new 0 0 30 30;" xml:space="preserve">
<style type="text/css">
	.st0{fill:#BA131A;}
</style>
<g>
	<path class="st0" d="M23.7,6.2C23.7,3.3,22,1,19.9,1s-3.8,2.3-3.8,5.2c0,1.4,0.8,2.9,1.7,4.2c0.5,0.8,0.8,1.7,0.7,2.6l-0.7,13.8
		c-0.1,1.2,0.9,2.1,2,2.1c1.2,0,2.1-1,2-2.1l-0.7-13.8c0-0.9,0.2-1.8,0.7-2.6C22.9,9.2,23.7,7.6,23.7,6.2z"/>
	<path class="st0" d="M12.5,1c-0.5,0-0.9,0.4-0.9,0.9v4.7h-0.8V1.9c0-0.5-0.4-0.9-0.9-0.9S8.9,1.4,8.9,1.9v4.7H8.1V1.9
		C8.1,1.4,7.7,1,7.2,1C6.7,1,6.3,1.4,6.3,1.9v4.7h0v1.5c0,0.8,0.3,1.6,0.9,2.2c0.7,0.7,1.1,1.6,1,2.6L7.8,26.9C7.7,28,8.7,29,9.8,29
		c1.2,0,2.1-1,2.1-2.1l-0.5-13.9c0-1,0.3-1.9,1-2.6C13,9.7,13.4,9,13.4,8.1V6.7V1.9C13.4,1.4,13,1,12.5,1z"/>
</g>
</svg>
