<?xml version="1.0" encoding="utf-8"?>
<!-- Generator: Adobe Illustrator 23.0.2, SVG Export Plug-In . SVG Version: 6.00 Build 0)  -->
<svg version="1.1" id="Capa_1" xmlns="http://www.w3.org/2000/svg" xmlns:xlink="http://www.w3.org/1999/xlink" x="0px" y="0px"
	 viewBox="0 0 50 52" width="50" height="52" style="enable-background:new 0 0 50 52;" xml:space="preserve">
<g>
	<path d="M47.6,24.5h-6.4l6.3-8.4c1.5-2,1.5-3.7-0.4-5c-1-0.7-3.1-0.8-4.3,1.2l-9,12.2H2.4c-0.8,0-1.4,0.7-1.4,1.4V28
		c0,7.7,5.5,14.1,12.7,15.7v1.8c0,2.3,1.9,4.2,4.2,4.2h14.2c2.3,0,4.2-1.9,4.2-4.2v-1.8C43.5,42.2,49,35.7,49,28v-2.1
		C49,25.1,48.3,24.5,47.6,24.5z M44.2,13c0.4-0.7,1.2-0.9,1.9-0.4c0.7,0.4,1,1.2,0.4,1.9l-7.6,10h-3.3L44.2,13z M34.3,45.6
		c0,1.2-1.4,2.2-2.2,2.2H17.8c-0.8,0-2.2-0.8-2.2-2.2v-1.4c0.2,0,2,0,2.2,0h15.8c0.2,0,0.5,0,0.7,0V45.6z M32.9,42.1H17.1
		c-5.7,0-11.4-4.2-13.3-9.2h42.3C44.2,37.9,38.5,42.1,32.9,42.1z M46.6,30.9H3.3c-0.1-0.7-0.5-3.3-0.3-4.3c1.3,0,43,0,44,0
		C47,28.2,46.7,30.2,46.6,30.9z"/>
	<path d="M32.2,15.7c-0.2,0-0.4-0.1-0.6-0.2c-0.1-0.1-2.1-1.5-1.9-3.7c0.1-2,1.1-2.9,1.9-3.5c0.7-0.6,1.2-1,1.2-2.1
		c0.1-1.6-1-2.1-1-2.1c-0.5-0.2-0.7-0.8-0.5-1.2s0.8-0.7,1.2-0.5c0.1,0,2.2,1,2.1,3.9c-0.1,2.1-1.1,2.9-1.8,3.6
		c-0.7,0.6-1.2,1-1.2,2.1c-0.1,1.2,1.2,2.1,1.2,2.1c0.4,0.3,0.6,0.9,0.2,1.3C32.8,15.6,32.5,15.7,32.2,15.7z"/>
	<path d="M25,15.7c-0.2,0-0.4-0.1-0.6-0.2c-0.1-0.1-2.1-1.5-1.9-3.7c0.1-2,1.1-2.9,1.9-3.5c0.7-0.6,1.2-1,1.2-2.1
		c0.1-1.6-1-2.1-1-2.1c-0.5-0.3-0.8-0.8-0.6-1.3c0.2-0.5,0.8-0.7,1.2-0.5c0.1,0,2.2,1,2.1,3.9c-0.1,2.1-1.1,2.9-1.8,3.6
		c-0.7,0.6-1.2,1-1.2,2.1C24.3,13,25.6,14,25.6,14c0.4,0.3,0.6,0.9,0.2,1.3C25.6,15.6,25.3,15.7,25,15.7z"/>
	<path d="M18.1,15.7c-0.2,0-0.4-0.1-0.6-0.2c-0.1-0.1-2.1-1.5-1.9-3.7c0.1-2,1.1-2.9,1.9-3.5c0.7-0.6,1.2-1,1.2-2.1
		c0.1-1.6-0.9-2.1-1-2.1c-0.5-0.2-0.7-0.8-0.5-1.2c0.2-0.5,0.8-0.7,1.2-0.5c0.1,0,2.2,1,2.1,3.9c-0.1,2.1-1.1,2.9-1.8,3.6
		c-0.7,0.6-1.2,1-1.2,2.1c-0.1,1.2,1.2,2.1,1.2,2.1c0.4,0.3,0.5,1,0.2,1.3C18.7,15.6,18.4,15.7,18.1,15.7z"/>
</g>
</svg>
