<?xml version="1.0" encoding="utf-8"?>
<svg version="1.1" id="Слой_1" xmlns="http://www.w3.org/2000/svg" xmlns:xlink="http://www.w3.org/1999/xlink" x="0px" y="0px"
	 viewBox="0 0 24 24" style="enable-background:new 0 0 24 24;" xml:space="preserve">
<style type="text/css">
	.st0{fill:#F0F0F0;}
	.st1{fill:#FFFFFF;}
</style>
<rect id="bg" x="0.1" class="st0" width="24" height="24"/>
<path id="icon" class="st1" d="M12,11.8c2-0.2,3.5-1.9,3.3-3.9C15.3,5.8,14.8,4,12,4S8.7,5.8,8.7,7.9C8.5,9.9,10,11.6,12,11.8z
	 M5.7,17.8L5.7,17.8z M18.3,17.9L18.3,17.9z M18.3,17.6c-0.1-3.8-0.6-4.8-4.5-5.5c-0.5,0.5-1.1,0.7-1.8,0.7c-0.7,0-1.3-0.2-1.8-0.7
	c-3.8,0.7-4.4,1.7-4.4,5.4c0,0.1,0,0.2,0,0.3v0.4c0,0,0.9,1.8,6.3,1.8s6.3-1.8,6.3-1.8v-0.3C18.3,17.9,18.3,17.9,18.3,17.6z"/>
</svg>
