<?xml version="1.0" encoding="utf-8"?>
<!-- Generator: Adobe Illustrator 22.1.0, SVG Export Plug-In . SVG Version: 6.00 Build 0)  -->
<svg version="1.1" id="Слой_1" xmlns="http://www.w3.org/2000/svg" xmlns:xlink="http://www.w3.org/1999/xlink" x="0px" y="0px"
	 viewBox="0 0 30 30" style="enable-background:new 0 0 30 30;" xml:space="preserve">
<style type="text/css">
	.st0{fill:#BA131A;}
</style>
<g>
	<path class="st0" d="M9.1,17c0.8,0,1.5-0.1,2.3-0.1V9c-0.7-0.1-1.5-0.1-2.3-0.1C4.6,8.8,1,10.5,1,12.5v0.8C1,15.3,4.6,17,9.1,17z"
		/>
	<path class="st0" d="M9.1,21.1c0.8,0,1.5-0.1,2.3-0.1v-2.3c-0.7,0.1-1.5,0.1-2.3,0.1c-3.9,0-7.2-1.3-8-2.9C1.1,16.1,1,16.4,1,16.6
		v0.8C1,19.5,4.6,21.1,9.1,21.1z"/>
	<path class="st0" d="M11.4,22.9v-0.2c-0.7,0.1-1.5,0.1-2.3,0.1c-3.9,0-7.2-1.3-8-2.9C1.1,20.2,1,20.5,1,20.7v0.8
		c0,2,3.6,3.7,8.1,3.7c0.9,0,1.8-0.1,2.6-0.2c-0.2-0.4-0.3-0.8-0.3-1.3V22.9z"/>
	<path class="st0" d="M20.9,2.6c-4.5,0-8.1,1.7-8.1,3.7v0.8c0,2,3.6,3.7,8.1,3.7c4.5,0,8.1-1.7,8.1-3.7V6.3
		C29,4.2,25.4,2.6,20.9,2.6z"/>
	<path class="st0" d="M20.9,12.5c-3.9,0-7.2-1.3-8-2.9c-0.1,0.2-0.2,0.5-0.2,0.8v0.8c0,2,3.6,3.7,8.1,3.7c4.5,0,8.1-1.7,8.1-3.7
		v-0.8c0-0.3-0.1-0.5-0.2-0.8C28.1,11.3,24.8,12.5,20.9,12.5z"/>
	<path class="st0" d="M20.9,16.7c-3.9,0-7.2-1.3-8-2.9c-0.1,0.2-0.2,0.5-0.2,0.8v0.8c0,2,3.6,3.7,8.1,3.7c4.5,0,8.1-1.7,8.1-3.7
		v-0.8c0-0.3-0.1-0.5-0.2-0.8C28.1,15.4,24.8,16.7,20.9,16.7z"/>
	<path class="st0" d="M20.9,21c-3.9,0-7.2-1.3-8-2.9c-0.1,0.2-0.2,0.5-0.2,0.8v0.8c0,2,3.6,3.7,8.1,3.7c4.5,0,8.1-1.7,8.1-3.7v-0.8
		c0-0.3-0.1-0.5-0.2-0.8C28.1,19.7,24.8,21,20.9,21z"/>
	<path class="st0" d="M20.9,25.1c-3.9,0-7.2-1.3-8-2.9c-0.1,0.2-0.2,0.5-0.2,0.8v0.8c0,2,3.6,3.7,8.1,3.7c4.5,0,8.1-1.7,8.1-3.7
		v-0.8c0-0.3-0.1-0.5-0.2-0.8C28.1,23.9,24.8,25.1,20.9,25.1z"/>
</g>
</svg>
