<?xml version="1.0" encoding="utf-8"?>
<!-- Generator: Adobe Illustrator 22.1.0, SVG Export Plug-In . SVG Version: 6.00 Build 0)  -->
<svg version="1.1" id="Слой_1" xmlns="http://www.w3.org/2000/svg" xmlns:xlink="http://www.w3.org/1999/xlink" x="0px" y="0px"
	 viewBox="0 0 30 30" style="enable-background:new 0 0 30 30;" xml:space="preserve">
<g>
	<circle cx="6.6" cy="26.2" r="2.8"/>
	<circle cx="17.8" cy="26.2" r="2.8"/>
	<path d="M29,3.8h-4.5l-4,17.1c-0.1,0.6-0.7,1.1-1.4,1.1h-14c-0.6,0-1.2-0.4-1.4-1.1L1.1,9.8C0.9,9,1.3,8.3,2.1,8.1
		c0.7-0.2,1.5,0.3,1.7,1l2.5,10.1h11.8l4-17.1C22.2,1.4,22.8,1,23.4,1H29"/>
</g>
<g>
	<g>
		<path d="M15,8.7c0,0-0.1-0.1-0.1-0.1h-1.4V5.4c0-0.1-0.1-0.1-0.1-0.1h-2.1c-0.1,0-0.1,0.1-0.1,0.1v3.2H9.7c-0.1,0-0.1,0-0.1,0.1
			c0,0,0,0.1,0,0.1l2.6,2.6c0,0,0.1,0,0.1,0c0,0,0.1,0,0.1,0L15,8.8C15,8.8,15,8.8,15,8.7z"/>
	</g>
</g>
</svg>
