<?xml version="1.0" encoding="utf-8"?>
<svg version="1.1" id="Layer_5" xmlns="http://www.w3.org/2000/svg" xmlns:xlink="http://www.w3.org/1999/xlink" x="0px" y="0px"
	 width="100" height="100" viewBox="0 0 100 100" style="enable-background:new 0 0 100 100;" xml:space="preserve">
<style type="text/css">
	.st0{fill:#BA131A;}
</style>
<g>
	<path class="st0" d="M75.3,16.8h-0.8C70.1,7.2,60.6,1,50,1C39.4,1,29.9,7.2,25.5,16.8h-0.8C11.6,16.8,1,27.4,1,40.5
		c0,10.4,6.6,19.9,15.8,23.3v28.9c0,5.9,25.4,6.3,33.2,6.3s33.2-0.5,33.2-6.3V63.8C92.4,60.5,99,50.9,99,40.5
		C99,27.4,88.4,16.8,75.3,16.8z M50,95.8c-15.8,0-26.7-1.7-29.6-3.2c2.8-1.4,13.7-3.2,29.6-3.2s26.7,1.7,29.6,3.2
		C76.7,94.1,65.8,95.8,50,95.8z M20,89.6v-2.9c0.4-0.4,1.5-0.8,3.2-1.2v3.1C21.9,88.9,20.9,89.2,20,89.6z M26.3,87.9v-3.1
		c1-0.2,2-0.3,3.2-0.5v3.1C28.4,87.6,27.3,87.7,26.3,87.9z M32.6,87.1V84c1-0.1,2.1-0.2,3.2-0.3v3.1C34.7,86.9,33.7,87,32.6,87.1z
		 M38.9,86.6v-3.1c1-0.1,2.1-0.1,3.2-0.2v3.1C41.1,86.5,40,86.6,38.9,86.6z M45.3,86.4v-3.2c1,0,2.1,0,3.2,0v3.2
		C47.5,86.4,46.4,86.4,45.3,86.4z M51.6,86.4v-3.2c1.1,0,2.1,0,3.2,0v3.2C53.6,86.4,52.5,86.4,51.6,86.4z M57.9,86.5v-3.1
		c1.1,0,2.1,0.1,3.2,0.2v3.1C60,86.6,58.9,86.5,57.9,86.5z M64.2,86.8v-3.1c1.1,0.1,2.2,0.2,3.2,0.3v3.1
		C66.3,87,65.3,86.9,64.2,86.8z M70.5,87.4v-3.1c1.1,0.2,2.2,0.3,3.2,0.5v3.1C72.7,87.7,71.6,87.6,70.5,87.4z M80,89.6
		c-0.9-0.4-2-0.7-3.2-1v-3.1c1.7,0.4,2.7,0.8,3.2,1.2V89.6z M80,83.2C73,80.3,56.1,80,50,80c-6.1,0-23,0.3-30,3.2v-14
		c1.6-1.5,13-3.5,30-3.5s28.4,2,30,3.5V83.2z M20,65.9V63c0.4-0.4,1.5-0.8,3.2-1.2v3.1C21.9,65.2,20.9,65.5,20,65.9z M26.3,64.2
		v-3.1c1-0.2,2-0.3,3.2-0.5v3.1C28.4,63.9,27.3,64,26.3,64.2z M32.6,63.4v-3.1c1-0.1,2.1-0.2,3.2-0.3v3.1
		C34.7,63.2,33.7,63.3,32.6,63.4z M38.9,62.9v-3.1c1-0.1,2.1-0.1,3.2-0.2v3.1C41.1,62.8,40,62.9,38.9,62.9z M45.3,62.7v-3.2
		c1,0,2.1,0,3.2,0v3.2C47.5,62.7,46.4,62.7,45.3,62.7z M51.6,62.7v-3.2c1.1,0,2.1,0,3.2,0v3.2C53.6,62.7,52.5,62.7,51.6,62.7z
		 M57.9,62.8v-3.1c1.1,0,2.1,0.1,3.2,0.2v3.1C60,62.9,58.9,62.8,57.9,62.8z M64.2,63.1V60c1.1,0.1,2.2,0.2,3.2,0.3v3.1
		C66.3,63.3,65.3,63.2,64.2,63.1z M70.5,63.7v-3.1c1.1,0.2,2.2,0.3,3.2,0.5v3.1C72.7,64,71.6,63.9,70.5,63.7z M80,65.9
		c-0.9-0.4-2-0.7-3.2-1v-3.1c1.7,0.4,2.7,0.8,3.2,1.2V65.9z M82.2,60.8c-4.8-4.1-25.3-4.5-32.2-4.5s-27.4,0.4-32.2,4.5
		c-8-2.9-13.7-11.2-13.7-20.3C4.2,29.2,13.4,20,24.7,20h2.9l0.4-1c3.6-9,12.3-14.8,22-14.8S68.3,10,72,19l0.4,1h2.9
		c11.3,0,20.5,9.2,20.5,20.5C95.8,49.5,90.1,57.9,82.2,60.8z"/>
	<path class="st0" d="M43.2,8.5l1.1,3c0.9-0.3,1.9-0.6,2.9-0.7l-0.5-3.1C45.4,7.8,44.3,8.1,43.2,8.5z"/>
	<path class="st0" d="M50,7.3v3.2c6.8,0,13,4,15.8,10.1l2.9-1.3C65.3,12,58,7.3,50,7.3z"/>
	<path class="st0" d="M7.3,40.5h3.2c0-7.8,6.4-14.2,14.2-14.2h1.6v-3.2h-1.6C15.1,23.1,7.3,30.9,7.3,40.5z"/>
	<path class="st0" d="M87,48.5L87,48.5l2.6,1.8c0.7-1,1.2-2,1.7-3l-2.9-1.2C88,46.9,87.6,47.8,87,48.5z"/>
	<path class="st0" d="M83,52.5L83,52.5l1.7,2.7c1-0.6,1.9-1.3,2.7-2.2l-2.2-2.3C84.5,51.4,83.8,52,83,52.5z"/>
	<path class="st0" d="M89.5,40.5c0,0.9-0.1,1.9-0.3,2.8l3.1,0.6c0.2-1.1,0.3-2.3,0.3-3.5H89.5z"/>
	<path class="st0" d="M89.2,37.7l3.1-0.6c-1.6-8.1-8.8-13.9-17-13.9h-3.2v3.2h3.2C82,26.3,87.9,31.1,89.2,37.7z"/>
</g>
</svg>
