<?xml version="1.0" encoding="utf-8"?>
<svg version="1.1" id="Layer_1" xmlns="http://www.w3.org/2000/svg" xmlns:xlink="http://www.w3.org/1999/xlink" x="0px" y="0px"
	 width="100" height="100" viewBox="0 0 100 100" style="enable-background:new 0 0 100 100;" xml:space="preserve">
<style type="text/css">
	.st0{fill:#BA131A;}
</style>
<g>
	<path class="st0" d="M98.1,16.8c-0.7-7-5.5-12.4-13.3-14.6c-2.5-0.6-5-0.7-7.2-0.7c-0.4,0-0.8,0-1.2,0c-0.4,0-0.7,0-1.1,0
		c-0.6,0-1.4,0-2.1,0c-2.9-0.2-6-0.3-9.4-0.3c-4.6,0-9.2,0.1-13.6,0.2l-2.5,0.1c-0.2,0-0.5,0-0.7,0c-1.5,0-3.6-0.1-6.1-0.1
		c-3.5-0.1-7.8-0.3-12.1-0.3c-4.2,0-7.5,0.1-10.4,0.4C3.8,2.7,1.4,12.9,1,22.5c-0.1,1.7,0.1,3.5,0.2,5.5c0.1,2.1,0.3,4.3,0.2,6.6
		c0,4-0.1,8.9-0.2,14C1,59.2,0.8,71,1.3,79.5c0.8,16.8,11.3,19.3,17.3,19.3h0.3h8.4c0.9,0,2.7,0,5.2,0c5.1,0,12.8,0.1,20.8,0.1
		c13.6,0,23.2-0.2,28.3-0.5c10.7-0.6,16.1-6.1,16.7-17.3C98.8,75.2,99.7,31.3,98.1,16.8z M94.9,81c-0.5,8.7-3.9,13.4-13.4,13.9
		c-6.1,0.4-17.3,0.5-28.1,0.5c-11.9,0-23.2-0.1-26.1-0.1h-8.4c-0.1,0-0.2,0-0.3,0c-7.9,0-13.2-4.3-13.7-15.9C4.3,67,5,47.2,5,34.9
		c0.1-4.8-0.5-8.8-0.4-12.2C5.1,11.4,8.6,6,18.8,5.1c3-0.3,6.4-0.4,10-0.4C36,4.7,43.4,5.1,47,5.1c0.3,0,0.5,0,0.7,0
		C52.9,5,58.3,4.8,63.8,4.8C66.9,4.8,70,4.9,73,5c0.7,0,1.5,0.1,2.4,0.1c0.7,0,1.5,0,2.3,0c2.2,0,4.4,0.1,6.3,0.6
		c5.5,1.6,10.1,5.5,10.7,11.5C96.1,31.7,95.2,75.4,94.9,81z"/>
	<path class="st0" d="M39,46c-1.2-0.5-2.7-0.5-3.9,0c-1,0.4-1.8,1.1-2.5,2c-0.5,0.9-1,1.9-1.2,3c-0.4,1.8-0.2,3.8,0.5,5.6
		c0.6,1.5,1.5,2.6,2.6,3.2c0.9,0.5,1.8,0.6,2.8,0.5c1-0.1,1.9-0.5,2.7-1.2c1.2-1,2.2-2.5,2.5-4.3v-0.3c0.2-1.7,0.1-3.7-0.5-5.3
		C41.4,47.7,40.4,46.5,39,46z M38.6,56.9c-0.4,0.4-0.9,0.5-1.4,0.6c-0.5,0-1,0-1.5-0.3c-0.6-0.4-1.3-1-1.6-2
		c-0.5-1.2-0.5-2.7-0.3-4.1c0.1-0.7,0.4-1.4,0.7-1.9c0.3-0.5,0.7-0.8,1.2-1c0.8-0.4,2.2-0.2,3,0.5c0.4,0.4,0.7,0.8,0.9,1.5
		C40.4,52.1,40.4,55.5,38.6,56.9z"/>
	<path class="st0" d="M54.8,37.5c0.4,0.2,0.6,0.3,1,0.4c1.1,0.3,2.2,0.2,3.2-0.3c0.5-0.2,0.9-0.5,1.3-0.7c1.2-0.9,2.1-2.2,2.5-3.9
		c0.2-0.8,0.3-1.7,0.3-2.6c0-1.2-0.3-2.5-0.8-3.5c-0.5-1.1-1.5-1.9-3-2.2c-0.5-0.1-0.9-0.1-1.4-0.1c-0.6,0-1.2,0.1-1.7,0.3
		c-1.5,0.5-2.5,1.5-3.1,2.9c-0.6,1.3-0.9,2.7-0.9,4.1c0,0.9,0.2,1.9,0.5,2.7C53,36.1,53.8,37,54.8,37.5z M55.1,28.8
		c0.4-0.7,0.9-1.3,1.6-1.5c0.5-0.1,1-0.1,1.5,0c0.7,0.1,1.4,0.5,1.7,1.2c0.4,0.6,0.5,1.5,0.5,2.4c0,0.6-0.1,1.4-0.2,2
		c-0.2,0.9-0.7,1.7-1.4,2.2c-0.5,0.3-0.9,0.5-1.4,0.5c-0.5,0-0.9,0-1.4-0.3c-0.5-0.3-1-0.9-1.3-1.7c-0.3-0.5-0.4-1.3-0.4-1.9
		C54.4,30.6,54.7,29.6,55.1,28.8z"/>
	<path class="st0" d="M40.5,66.5c-0.6,0.1-1.2,0.7-1.2,1.5l0.2,4.3L35,72.7l-0.4-4.8c-0.1-0.6-0.6-1.1-1.4-1
		c-0.7,0.1-1.3,0.7-1.2,1.5L33,80.1c0.1,0.6,0.6,1.1,1.4,1c0.7-0.1,1.3-0.7,1.2-1.5l-0.4-4.5l4.5-0.5l0.2,5.1c0,0.7,0.5,1.2,1.3,1.1
		c0.6-0.1,1.2-0.7,1.2-1.5l-0.5-11.8C41.8,66.9,41.3,66.4,40.5,66.5z"/>
	<path class="st0" d="M26.1,37.8c0.3,0.3,0.6,0.5,0.9,0.7c1.4,0.9,3,1.3,4.6,1c1.5-0.3,3.1-1.2,4.5-2.6c0.4-0.4,0.7-0.8,1-1.3
		c0.5-0.7,0.4-1.6-0.3-2.1c-0.6-0.5-1.6-0.2-2.1,0.5c-0.3,0.4-0.5,0.6-0.7,0.9c-0.8,0.9-1.7,1.4-2.6,1.5c-0.9,0.1-1.8-0.1-2.6-0.6
		c-0.2-0.1-0.4-0.3-0.5-0.5C27.5,34.9,27,34,26.6,33c-0.4-1.1-0.5-2.5-0.5-4v-0.7c0.2-2.3,0.8-4,1.8-5.3c0.9-1.1,2-1.7,3.2-1.7h0.2
		c2.3,0.1,2.7,2.6,2.7,2.6c0.1,0.8,0.9,1.4,1.7,1.1c0.8-0.3,1.4-1.1,1.2-1.9c0-0.1-0.9-4.6-5.2-5h-0.4c-2.2,0-4.2,1.1-5.7,3
		c-1.5,1.8-2.5,4.3-2.5,7.3v0.9c0,1.8,0.3,3.5,0.7,4.9C24.4,35.6,25.1,36.9,26.1,37.8z"/>
	<path class="st0" d="M31.4,60.6c-1.5-1-3.1-2.5-4.8-4.3c-1.3-1.4-2.5-2.9-3.4-4.3c0.3-0.3,0.5-0.5,0.6-0.7c1.8-2.3,3.6-4.2,5.3-5.7
		c0.6-0.6,0.7-1.5,0.2-2.2c-0.5-0.6-1.5-0.6-2.1,0c-1.7,1.7-3.6,3.7-5.5,6.1c-0.7,0.9-1.4,1.7-2,2.6L19.2,45
		c-0.1-0.8-0.8-1.5-1.6-1.3c-0.8,0.2-1.5,1-1.4,1.8l1.2,17.3c0.1,0.8,0.8,1.5,1.6,1.3c0.8-0.2,1.5-1,1.4-1.8L20,56.9
		c0.5-0.7,0.9-1.5,1.4-2.1c0.9,1.4,2,2.6,3.1,3.8c1.6,1.7,3.5,3.4,5,4.5c0.6,0.5,1.5,0.3,2.1-0.5C32.1,62,32,61,31.4,60.6z"/>
	<path class="st0" d="M55.1,66.9c-0.5-0.4-1.3-0.2-1.7,0.5l-4.8,7l-0.2-6.5c0-0.6-0.5-1.2-1.3-1.1c-0.6,0.1-1.2,0.7-1.2,1.5
		l0.3,10.3c0,0.6,0.5,1.2,1.3,1.1c0.5-0.1,0.8-0.3,1-0.6l4.6-6.7l-0.2,6.2c-0.1,0.7,0.5,1.3,1.2,1.2c0.6,0,1.3-0.6,1.3-1.4L55.5,68
		C55.6,67.6,55.4,67.2,55.1,66.9z"/>
	<path class="st0" d="M73.3,39.8c0.6,0,1.3-0.6,1.3-1.4L75.1,25c0-0.6-0.4-1.1-0.9-1.2c-1.5-0.4-2.6-0.5-3.6-0.4
		c-1.4,0.2-2.4,0.6-3.2,1.3c-0.8,0.6-1.3,1.5-1.5,2.5c-0.2,0.6-0.3,1.4-0.2,2c0.3,2.2,1.4,3.3,3,3.7c-0.5,0.6-1.1,1.4-1.7,2
		c-1.1,1.1-2.3,2-3.3,2.5c-0.6,0.4-1,1.1-0.7,1.7c0.3,0.6,1,0.9,1.6,0.5c1.3-0.6,2.7-1.8,4-3.1c1.2-1.2,2.3-2.5,2.9-3.5
		c0.4-0.1,0.6-0.1,0.9-0.1l-0.2,5.6C72.1,39.3,72.6,39.9,73.3,39.8z M72.4,30.3c-1,0.2-2,0.3-2.7,0c-0.8-0.2-1.4-0.6-1.5-1.7
		c-0.1-0.4,0-0.7,0-1.2c0.1-0.4,0.4-0.7,0.6-1c0.4-0.3,0.9-0.5,1.6-0.5c0.6,0,1.3,0,2.1,0.2L72.4,30.3z"/>
	<path class="st0" d="M80.2,46c-0.1-0.4-0.4-0.6-0.7-0.7c-0.6-0.2-1.4,0.2-1.6,0.9l-5,13.7c-0.3,0.6,0.1,1.4,0.7,1.5
		c0.6,0.2,1.4-0.2,1.6-0.9l0.8-2.4l5.1,0.1l0.6,2.7c0.2,0.6,0.9,1,1.5,0.7c0.7-0.2,1.1-1,0.9-1.6L80.2,46z M77.1,55.6l1.9-5.1
		l1.5,5.2L77.1,55.6z"/>
	<path class="st0" d="M49.9,34.1c-0.1-1.3-0.6-2.5-1.5-3.4c-0.3-0.3-0.5-0.5-0.9-0.7c0.5-0.7,0.8-1.6,0.8-2.7c0-0.5-0.1-0.8-0.2-1.3
		c-0.3-0.9-0.9-1.6-1.7-2.1c-0.7-0.5-1.7-0.7-2.7-0.7c-0.6,0-1.4,0.1-2.1,0.4c-0.6,0.3-1,0.8-1,1.5l0.1,12.9c0,0.5,0.4,1,0.8,1.1
		c0.7,0.2,1.4,0.3,2,0.3C46.8,39.4,50,37.7,49.9,34.1z M43.2,25.8c1.1-0.1,2.3,0.3,2.6,1.3c0.1,0.1,0.1,0.3,0.1,0.5
		c0,0.7-0.4,1.2-0.8,1.5c-0.5,0.3-1.2,0.4-1.9,0.5V25.8z M46.4,36.2c-0.6,0.4-1.5,0.5-2.5,0.5c-0.2,0-0.5-0.1-0.7-0.1V32
		c0.5,0,1.1-0.2,1.6-0.1c1.5,0,2.6,1.3,2.5,2.9C47.4,35.4,47,35.9,46.4,36.2z"/>
	<path class="st0" d="M89,51.4H86c-0.7,0.1-1.3,0.6-1.4,1.4c0,0.7,0.5,1.3,1.2,1.3h3.1c0.7-0.1,1.3-0.6,1.4-1.4
		C90.2,52,89.8,51.4,89,51.4z"/>
	<path class="st0" d="M70.3,45.7l-6.5-0.1h-0.2c-0.6,0-1.3,0.6-1.3,1.4l-0.5,11.5c-0.1,0.6,0.5,1.2,1.2,1.2c0.6,0,1.3-0.6,1.3-1.4
		l0.5-10.2l4.1,0.1l-0.3,10.3c-0.1,0.7,0.5,1.3,1.2,1.2c0.6,0,1.3-0.6,1.3-1.4l0.5-11.4C71.4,46.2,71,45.7,70.3,45.7z"/>
	<path class="st0" d="M59,59l-2.2-12.4c-0.1-0.5-0.4-0.9-0.8-1c-0.6-0.2-1.4,0.2-1.6,0.9l-2.5,6.7l-2.4-6.9c-0.2-0.5-0.5-0.7-1-0.8
		c-0.6,0-1.3,0.5-1.5,1.2l-2.5,12.6c-0.1,0.6,0.4,1.3,1,1.4c0.6,0,1.3-0.5,1.5-1.2l1.6-7.9l2,5.9c0.2,0.6,0.9,0.9,1.5,0.6
		c0.4-0.2,0.6-0.5,0.7-0.8l2.1-5.7l1.5,8.1c0.1,0.7,0.7,1.1,1.5,0.9C58.6,60.4,59.1,59.8,59,59z"/>
	<path class="st0" d="M67.8,66.1c-0.9-0.3-8-2-8.4,4.4c-0.2,2.8,1.3,4,2.9,4.4c-0.5,0.6-1,1.2-1.5,1.7c-0.8,0.9-1.7,1.6-2.5,2.3
		c-0.5,0.5-0.7,1.3-0.4,1.8c0.4,0.5,1.2,0.6,1.7,0.2c0.9-0.7,1.9-1.5,2.8-2.5c0.8-1,1.7-2.1,2.5-3.4c0.3,0,0.5-0.1,0.9-0.1l-0.2,5.4
		c-0.1,0.7,0.5,1.3,1.2,1.2c0.6,0,1.3-0.6,1.3-1.4l0.5-12.7C68.7,66.7,68.3,66.2,67.8,66.1z M65.9,72.2c-1.5,0.4-4.3,0.7-4.1-1.8
		c0.1-2.4,2.8-2.2,4.2-2L65.9,72.2z"/>
</g>
</svg>
