<?xml version="1.0" encoding="utf-8"?>
<svg version="1.1" id="Layer_5" xmlns="http://www.w3.org/2000/svg" xmlns:xlink="http://www.w3.org/1999/xlink" x="0px" y="0px"
	 width="100" height="100" viewBox="0 0 100 100" style="enable-background:new 0 0 100 100;" xml:space="preserve">
<style type="text/css">
	.st0{fill:#BA131A;}
</style>
<g>
	<path class="st0" d="M99,80c0-2.3-1.9-4.4-5.6-6.2c0.6-1.5,0.9-3.1,0.9-4.8c0-7.8-6.4-14.2-14.2-14.2c-2.9,0-5.6,0.9-7.9,2.4V39.9
		c0-2.7,1.8-5.1,4.4-5.8c3.9-1.1,6.7-4.8,6.7-8.9V5.7c0-2.6-2.1-4.7-4.7-4.7s-4.7,2.1-4.7,4.7v15.8c0,0.9-0.7,1.6-1.6,1.6
		s-1.6-0.7-1.6-1.6V5.7c0-2.6-2.1-4.7-4.7-4.7s-4.7,2.1-4.7,4.7v15.8c0,0.9-0.7,1.6-1.6,1.6c-0.9,0-1.6-0.7-1.6-1.6V5.7
		c0-2.6-2.1-4.7-4.7-4.7s-4.7,2.1-4.7,4.7v19.5c0,4.1,2.7,7.7,6.7,8.9c2.6,0.7,4.4,3.1,4.4,5.8V54c-2.6-0.6-5.2-0.9-7.9-0.9l-2.1,0
		L39.4,43l-1.1,1.1c-0.1,0.1-0.1,0.2-0.1,0.1c-0.2,0.1-0.4,0.1-0.7,0.2c0,0,0,0,0,0v-7.4c0-1.7,0.8-3.4,2.2-4.7
		c3.6-3.3,5.7-8.4,5.7-14C45.3,8.6,39,1,31,1c-8,0-14.2,7.6-14.2,17.4c0,5.6,2.1,10.7,5.7,14c1.4,1.3,2.2,3,2.2,4.7v18.5
		c-0.3,0.8-0.4,1.5-0.6,2.1c-0.1,0.4-0.1,0.6-0.1,0.7c0,0.1-0.1,0.1-0.2,0.2c-0.1,0.1-0.1,0.2-0.1,0.2c-0.2,0.1-0.4,0.1-0.8,0.2
		c-1.8,0.4-5.2,1.2-8.6,4.6c-3.4,3.4-4.2,6.8-4.6,8.6c0,0.2-0.1,0.3-0.1,0.4C3.9,74.6,1,77.1,1,80v6.3C1,94.7,25.7,99,50,99
		c24.3,0,49-4.3,49-12.6v-6.1h0C99,80.2,99,80.1,99,80z M80,57.9c6.1,0,11.1,5,11.1,11.1S86.1,80,80,80C73.9,80,69,75.1,69,69
		S73.9,57.9,80,57.9z M65.9,70.6C65.9,70.6,65.8,70.5,65.9,70.6c-4.5,0-8,3.5-8,7.9s3.5,7.9,7.9,7.9v-3.2c-2.6,0-4.7-2.1-4.7-4.7
		s2.1-4.7,4.7-4.7c0.3,0,0.6,0,0.9,0.1c1.5,4.2,5,7.5,9.4,8.8c-1,2.5-3,4.6-5.5,5.8c-2.4,0.3-5,0.5-7.7,0.7
		c-4.8-1.3-8.1-5.7-8.1-10.7c0-6.1,5-11.1,11.1-11.1c0,0,0.1,0,0.1,0c-0.1,0.5-0.1,1-0.1,1.6C65.8,69.5,65.8,70,65.9,70.6z M56,31.1
		c-2.6-0.7-4.4-3.1-4.4-5.8V5.7c0-0.9,0.7-1.6,1.6-1.6c0.9,0,1.6,0.7,1.6,1.6v15.8c0,2.6,2.1,4.7,4.7,4.7s4.7-2.1,4.7-4.7V5.7
		c0-0.9,0.7-1.6,1.6-1.6s1.6,0.7,1.6,1.6v15.8c0,2.6,2.1,4.7,4.7,4.7s4.7-2.1,4.7-4.7V5.7c0-0.9,0.7-1.6,1.6-1.6S80,4.9,80,5.7v19.5
		c0,2.7-1.8,5.1-4.4,5.8c-3.9,1.1-6.7,4.8-6.7,8.9v17.6c-2-1.1-4.1-2-6.3-2.7V39.9C62.6,35.9,59.9,32.2,56,31.1z M51.6,56.3
		c5.9,0,11.7,1.6,16.8,4.6c-0.7,1-1.3,2.2-1.7,3.4c-0.3,0-0.5-0.1-0.8-0.1c-7.8,0-14.2,6.4-14.2,14.2c0,4.3,2,8.3,5.2,11
		c-2.2,0.1-4.4,0.1-6.7,0.1c-14.8,0-26.6-1.5-34.6-3.5c0.1-1.4,0.4-2.7,0.7-4l3.5,3.5l1.1-1.1c3.4-3.4,4.2-6.8,4.6-8.6
		c0.1-0.4,0.1-0.6,0.1-0.7c0-0.1,0.1-0.1,0.2-0.2c0.1-0.1,0.1-0.1,0.1-0.1c0.2-0.1,0.4-0.1,0.8-0.2c1.8-0.4,5.2-1.2,8.6-4.6
		c3.4-3.4,4.2-6.8,4.6-8.6c0.1-0.4,0.1-0.6,0.1-0.7c0-0.1,0.1-0.1,0.2-0.2c0.1-0.1,0.1-0.2,0.1-0.1c0.2-0.1,0.4-0.1,0.7-0.2
		c1.6-0.4,4.6-1.1,7.7-3.7L51.6,56.3z M46.1,54.3c-2.3,1.9-4.4,2.4-5.9,2.7c-1.3,0.3-1.6,0.4-2.4,1.2c-0.8,0.8-0.9,1.1-1.2,2.4
		c-0.4,1.7-1,4.3-3.8,7.1c-2.8,2.8-5.4,3.4-7.1,3.8c-1.3,0.3-1.6,0.4-2.4,1.2c-0.8,0.8-0.9,1.1-1.2,2.4c-0.3,1.5-0.8,3.6-2.7,5.9
		l-2.3-2.3c1.4-1.7,1.7-3.2,2-4.5c0.3-1.4,0.6-2.5,2-3.9c1.5-1.5,2.5-1.7,3.9-2c1.6-0.4,3.3-0.8,5.4-2.9c2.1-2.1,2.5-3.9,2.9-5.4
		c0.3-1.4,0.6-2.5,2-3.9c1.5-1.5,2.5-1.7,3.9-2c1.3-0.3,2.8-0.6,4.5-2L46.1,54.3z M24.6,30c-2.9-2.7-4.6-6.9-4.6-11.6
		c0-8,4.9-14.2,11.1-14.2c6.2,0,11.1,6.2,11.1,14.2c0,4.7-1.7,9-4.6,11.6c-2.1,1.9-3.3,4.4-3.3,7v8.4c-1.6,0.7-3.5,1.7-5.4,3.7
		c-0.3,0.3-0.6,0.6-0.9,1v-13C27.9,34.4,26.7,31.9,24.6,30z M12.8,72.8c0.4-1.7,1-4.3,3.8-7.1c2.8-2.8,5.4-3.4,7.1-3.8
		c1.3-0.3,1.6-0.4,2.4-1.2c0.8-0.8,0.9-1.1,1.2-2.4c0.4-1.7,1-4.3,3.8-7.1c2.8-2.8,5.4-3.4,7.1-3.8c0.5-0.1,0.8-0.2,1.1-0.3l2.4,2.4
		c-1,0.7-1.9,0.9-2.9,1.2c-1.6,0.4-3.3,0.8-5.4,2.9c-2.1,2.1-2.5,3.9-2.9,5.4c-0.3,1.4-0.6,2.5-2,3.9c-1.5,1.5-2.5,1.7-3.9,2
		c-1.6,0.4-3.3,0.8-5.4,2.9c-2.1,2.1-2.5,3.9-2.9,5.4c-0.2,1-0.4,1.9-1.2,2.9l-2.4-2.4C12.6,73.6,12.7,73.3,12.8,72.8z M9.9,75.8
		l3.6,3.6c-0.5,1.9-0.9,3.8-1.2,5.8C7,83.5,4.2,81.6,4.2,80C4.2,79,5.7,77.4,9.9,75.8z M95.8,86.4c0,4-17.4,9.5-45.8,9.5
		c-28.4,0-45.8-5.5-45.8-9.5v-1.5c7.4,5.2,26.7,7.9,45.8,7.9s38.4-2.7,45.8-7.9V86.4z M76.7,87.6c1.1-1.3,2-2.8,2.6-4.5
		c0.3,0,0.5,0,0.8,0c5,0,9.4-2.6,12-6.6c2.8,1.4,3.8,2.6,3.8,3.4C95.8,82.5,88.9,85.6,76.7,87.6z"/>
	<path class="st0" d="M80,76.9c4.4,0,7.9-3.5,7.9-7.9s-3.5-7.9-7.9-7.9s-7.9,3.5-7.9,7.9S75.7,76.9,80,76.9z M80,64.2
		c2.6,0,4.7,2.1,4.7,4.7s-2.1,4.7-4.7,4.7s-4.7-2.1-4.7-4.7S77.4,64.2,80,64.2z"/>
	<rect x="29.5" y="80" class="st0" width="3.2" height="3.2"/>
	<rect x="35.8" y="73.7" class="st0" width="3.2" height="3.2"/>
	<rect x="42.1" y="61.1" class="st0" width="3.2" height="3.2"/>
	<rect x="50" y="62.6" class="st0" width="3.2" height="3.2"/>
	<rect x="45.3" y="72.1" class="st0" width="3.2" height="3.2"/>
	<rect x="45.3" y="83.2" class="st0" width="3.2" height="3.2"/>
	<rect x="35.8" y="83.2" class="st0" width="3.2" height="3.2"/>
</g>
</svg>
