<?xml version="1.0" encoding="utf-8"?>
<!-- Generator: Adobe Illustrator 23.0.2, SVG Export Plug-In . SVG Version: 6.00 Build 0)  -->
<svg version="1.1" id="Capa_1" xmlns="http://www.w3.org/2000/svg" xmlns:xlink="http://www.w3.org/1999/xlink" x="0px" y="0px"
	 viewBox="0 0 62 45" width="62" height="45" style="enable-background:new 0 0 62 45;" xml:space="preserve">
<style type="text/css">
	.st0{fill:#BA131A;}
</style>
<path class="st0" d="M41.6,16.2c-0.7-0.8-1.3-1.6-1.9-2.3c-0.2-0.2-0.5-0.3-0.7-0.1c-4,3.6-21.1,26-22.6,29.9
	c-0.1,0.3,0.1,0.3,0.2,0.1c8.5-9.2,16.7-18.1,24.9-27C41.8,16.7,41.8,16.4,41.6,16.2z M14.2,42.5c0.1,0.3,0.2,0.3,0.4,0.1
	C21.6,32,28.3,22,35.1,11.9c0.2-0.2,0.1-0.5-0.2-0.6c-1.1-0.5-2-0.9-3-1.3c-0.3-0.1-0.6,0-0.7,0.2c-5.8,10.4-11.6,20.6-17.3,30.9
	C13.8,41.3,14,41.7,14.2,42.5z M36.9,1.1c-0.2-0.1-0.5-0.1-0.7,0.2c-0.7,1.1-1.2,2.1-1.8,3c-2,3.6-2.1,3.7,1.6,5.2
	c0.3,0.1,0.6,0,0.7-0.2c1.2-1.8,2.4-3.5,3.6-5.5c0.2-0.2,0.1-0.5-0.1-0.7C39.1,2.4,38,1.8,36.9,1.1z M44.4,6.8
	c-4.5,4.3-4.6,5-1.1,7.6c0.2,0.2,0.6,0.1,0.8-0.1c1.3-1.4,2.6-2.8,4-4.3c0.2-0.2,0.2-0.5,0-0.7c-0.9-0.8-1.8-1.6-2.8-2.5
	C44.9,6.6,44.6,6.6,44.4,6.8z"/>
</svg>
