<?xml version="1.0" encoding="utf-8"?>
<!-- Generator: Adobe Illustrator 23.0.2, SVG Export Plug-In . SVG Version: 6.00 Build 0)  -->
<svg version="1.1" id="Layer_1" xmlns="http://www.w3.org/2000/svg" xmlns:xlink="http://www.w3.org/1999/xlink" x="0px" y="0px"
	 viewBox="0 0 62 45" width="62" height="45" style="enable-background:new 0 0 62 45;" xml:space="preserve">
<style type="text/css">
	.st0{fill:#BA131A;}
</style>
<g>
	<path class="st0" d="M44.4,9.1c0-4.5-2.6-8.1-5.9-8.1s-5.9,3.6-5.9,8.1c0,2.1,1.3,4.5,2.7,6.5c0.8,1.2,1.2,2.6,1.1,4l-1,21.2
		c-0.1,1.8,1.3,3.3,3.1,3.3c1.8,0,3.2-1.5,3.1-3.3l-1-21.2c-0.1-1.4,0.3-2.8,1.1-4C43.1,13.5,44.4,11.1,44.4,9.1z"/>
	<path class="st0" d="M27.1,1c-0.8,0-1.4,0.6-1.4,1.4v7.2h-1.2V2.4c0-0.8-0.6-1.4-1.4-1.4s-1.4,0.6-1.4,1.4v7.2h-1.2V2.4
		c0-0.8-0.6-1.4-1.4-1.4c-0.8,0-1.4,0.6-1.4,1.4v7.2h0v2.2c0,1.3,0.5,2.5,1.4,3.3c1.1,1.1,1.6,2.5,1.6,4l-0.7,21.4
		c-0.1,1.8,1.4,3.3,3.2,3.3c1.8,0,3.2-1.5,3.2-3.3l-0.7-21.4c0-1.5,0.5-3,1.6-4c0.8-0.9,1.4-2,1.4-3.3V9.7V2.4
		C28.5,1.7,27.9,1,27.1,1z"/>
</g>
</svg>
