<?xml version="1.0" encoding="utf-8"?>
<!-- Generator: Adobe Illustrator 22.1.0, SVG Export Plug-In . SVG Version: 6.00 Build 0)  -->
<svg version="1.1" id="Capa_1" xmlns="http://www.w3.org/2000/svg" xmlns:xlink="http://www.w3.org/1999/xlink" x="0px" y="0px"
	 viewBox="0 0 30 30" style="enable-background:new 0 0 30 30;" xml:space="preserve">
<style type="text/css">
	.st0{fill:#B2B2B7;}
</style>
<g>
	<path class="st0" d="M20.8,26l-0.4,1.6c-1.2,0.5-2.1,0.8-2.8,1.1c-0.7,0.2-1.5,0.4-2.4,0.4c-1.4,0-2.5-0.3-3.3-1
		c-0.8-0.7-1.2-1.6-1.2-2.6c0-0.4,0-0.8,0.1-1.3c0.1-0.4,0.2-0.9,0.3-1.5l1.5-5.2c0.1-0.5,0.2-1,0.3-1.4c0.1-0.4,0.1-0.8,0.1-1.2
		c0-0.7-0.1-1.1-0.4-1.4C12.3,13.1,11.8,13,11,13c-0.4,0-0.8,0.1-1.2,0.2c-0.4,0.1-0.7,0.2-1,0.3l0.4-1.6c1-0.4,1.9-0.7,2.8-1
		c0.9-0.3,1.7-0.4,2.5-0.4c1.4,0,2.5,0.3,3.3,1c0.8,0.7,1.1,1.6,1.1,2.7c0,0.2,0,0.6-0.1,1.2c-0.1,0.6-0.2,1.1-0.3,1.6L17,22.1
		c-0.1,0.4-0.2,0.9-0.3,1.4c-0.1,0.5-0.1,0.9-0.1,1.2c0,0.7,0.2,1.2,0.5,1.4c0.3,0.2,0.8,0.4,1.6,0.4c0.4,0,0.8-0.1,1.2-0.2
		C20.3,26.2,20.6,26.1,20.8,26z M21.2,4.3c0,0.9-0.3,1.7-1,2.3c-0.7,0.6-1.5,1-2.5,1c-1,0-1.8-0.3-2.5-1c-0.7-0.6-1-1.4-1-2.3
		c0-0.9,0.3-1.7,1-2.3c0.7-0.6,1.5-1,2.5-1c1,0,1.8,0.3,2.5,1C20.8,2.6,21.2,3.4,21.2,4.3z"/>
</g>
</svg>
