<?xml version="1.0" encoding="utf-8"?>
<!-- Generator: Adobe Illustrator 22.1.0, SVG Export Plug-In . SVG Version: 6.00 Build 0)  -->
<svg version="1.1" id="Capa_1" xmlns="http://www.w3.org/2000/svg" xmlns:xlink="http://www.w3.org/1999/xlink" x="0px" y="0px"
	 viewBox="0 0 30 30" style="enable-background:new 0 0 30 30;" xml:space="preserve">
<style type="text/css">
	.st0{fill:#BB1018;}
</style>
<g>
	<path class="st0" d="M16.3,28.9c5.6-0.6,10.1-5.1,10.8-10.7c0.8-7.3-4.9-13.6-12-13.7V1.2c0-0.2-0.2-0.3-0.4-0.2L7.9,6
		c-0.1,0.1-0.1,0.3,0,0.3l6.8,5c0.2,0.1,0.4,0,0.4-0.2V7.9c5,0.1,9.1,4.4,8.7,9.5c-0.3,4.4-3.9,8-8.3,8.2c-4.7,0.3-8.6-3-9.3-7.4
		c-0.1-0.8-0.8-1.4-1.7-1.4c-1,0-1.8,0.9-1.7,1.9C3.8,25,9.6,29.7,16.3,28.9z"/>
</g>
</svg>
