<?xml version="1.0" encoding="utf-8"?>
<!-- Generator: Adobe Illustrator 22.1.0, SVG Export Plug-In . SVG Version: 6.00 Build 0)  -->
<svg version="1.1" id="Слой_1" xmlns="http://www.w3.org/2000/svg" xmlns:xlink="http://www.w3.org/1999/xlink" x="0px" y="0px"
	 viewBox="0 0 30 30" style="enable-background:new 0 0 30 30;" xml:space="preserve">
<style type="text/css">
	.st0{fill:#FFFFFF;}
</style>
<path class="st0" d="M1.3,16.1C1.1,15.9,1,15.5,1,15.3s0.1-0.5,0.3-0.8l1.5-1.5c0.4-0.4,1.1-0.4,1.5,0l0.1,0.1l5.9,6.4
	c0.2,0.2,0.5,0.2,0.8,0l14.4-15h0.1l0,0c0.4-0.4,1.1-0.4,1.5,0l1.5,1.5c0.4,0.4,0.4,1.1,0,1.5l0,0L11.4,25.4
	c-0.2,0.2-0.4,0.3-0.8,0.3s-0.5-0.1-0.8-0.3l-8.4-9C1.5,16.4,1.3,16.1,1.3,16.1z"/>
</svg>
