<?xml version="1.0" encoding="utf-8"?>
<!-- Generator: Adobe Illustrator 22.1.0, SVG Export Plug-In . SVG Version: 6.00 Build 0)  -->
<svg version="1.1" id="Capa_1" xmlns="http://www.w3.org/2000/svg" xmlns:xlink="http://www.w3.org/1999/xlink" x="0px" y="0px"
	 viewBox="0 0 30 30" style="enable-background:new 0 0 30 30;" xml:space="preserve">
<style type="text/css">
	.st0{fill:#BA131A;}
</style>
<path class="st0" d="M7.6,27.1c0,0,0.4,1.9,2.6,1.9h9.7c2.1,0,2.6-1.9,2.6-1.9l1.9-18.6H5.7L7.6,27.1z M18.7,11.3
	c0-0.5,0.4-0.9,0.9-0.9c0.5,0,0.9,0.4,0.9,0.9l-0.9,14c0,0.5-0.4,0.9-0.9,0.9s-0.9-0.4-0.9-0.9L18.7,11.3z M14.1,11.3
	c0-0.5,0.4-0.9,0.9-0.9c0.5,0,0.9,0.4,0.9,0.9v14c0,0.5-0.4,0.9-0.9,0.9c-0.5,0-0.9-0.4-0.9-0.9C14.1,25.3,14.1,11.3,14.1,11.3z
	 M10.3,10.3c0.5,0,0.9,0.4,0.9,0.9l0.9,14c0,0.5-0.4,0.9-0.9,0.9c-0.5,0-0.9-0.4-0.9-0.9l-0.9-14C9.4,10.8,9.8,10.3,10.3,10.3z
	 M23.8,4.7h-4.1V2.9c0-1.4-0.5-1.9-1.9-1.9h-5.6c-1.3,0-1.9,0.6-1.9,1.9v1.9H6.2c-0.8,0-1.5,0.6-1.5,1.4c0,0.8,0.7,1.4,1.5,1.4h17.5
	c0.8,0,1.5-0.6,1.5-1.4C25.3,5.4,24.6,4.7,23.8,4.7z M17.8,4.7h-5.6l0-1.9h5.6L17.8,4.7L17.8,4.7z"/>
</svg>
