<?xml version="1.0" encoding="utf-8"?>
<!-- Generator: Adobe Illustrator 22.1.0, SVG Export Plug-In . SVG Version: 6.00 Build 0)  -->
<svg version="1.1" id="Слой_1" xmlns="http://www.w3.org/2000/svg" xmlns:xlink="http://www.w3.org/1999/xlink" x="0px" y="0px"
	 viewBox="0 0 13 16" style="enable-background:new 0 0 13 16;" xml:space="preserve">
<style type="text/css">
	.st0{fill:#BA131A;}
</style>
<path id="Иконка_профиля" class="st0" d="M6.5,7.8c1.7-0.2,3-1.7,2.9-3.4C9.4,2.5,9,1,6.5,1S3.6,2.5,3.6,4.4
	C3.5,6.2,4.8,7.7,6.5,7.8z M1,13.1L1,13.1z M12,13.2L12,13.2z M12,12.9c-0.1-3.3-0.5-4.2-3.9-4.8c-0.4,0.4-1,0.6-1.6,0.6
	c-0.6,0-1.2-0.2-1.6-0.6C1.5,8.7,1.1,9.6,1,12.8c0,0.1,0,0.2,0,0.2v0.3c0,0,0.8,1.6,5.5,1.6s5.5-1.6,5.5-1.6v-0.3
	C12,13.2,12,13.1,12,12.9z"/>
</svg>
