<?xml version="1.0" encoding="utf-8"?>
<!-- Generator: Adobe Illustrator 22.1.0, SVG Export Plug-In . SVG Version: 6.00 Build 0)  -->
<svg version="1.1" id="Capa_1" xmlns="http://www.w3.org/2000/svg" xmlns:xlink="http://www.w3.org/1999/xlink" x="0px" y="0px"
	 viewBox="0 0 30 30" style="enable-background:new 0 0 30 30;" xml:space="preserve">
<style type="text/css">
	.st0{fill:#BB1018;}
</style>
<path class="st0" d="M15,1C7.3,1,1,7.3,1,15s6.3,14,14,14s14-6.3,14-14S22.7,1,15,1z M21.7,16.1h-5.7V22c0,0.6-0.5,1.1-1.1,1.1
	s-1.1-0.5-1.1-1.1v-5.9H8.3c-0.6,0-1.1-0.5-1.1-1.1s0.5-1.1,1.1-1.1h5.7V8.5c0-0.6,0.5-1.1,1.1-1.1s1.1,0.5,1.1,1.1v5.4h5.7
	c0.6,0,1.1,0.5,1.1,1.1S22.3,16.1,21.7,16.1z"/>
</svg>
