<?xml version="1.0" encoding="utf-8"?>
<!-- Generator: Adobe Illustrator 22.1.0, SVG Export Plug-In . SVG Version: 6.00 Build 0)  -->
<svg version="1.1" id="Слой_1" xmlns="http://www.w3.org/2000/svg" xmlns:xlink="http://www.w3.org/1999/xlink" x="0px" y="0px"
	 viewBox="0 0 30 30" style="enable-background:new 0 0 30 30;" xml:space="preserve">
<g>
	<path d="M15.9,19.4h7.5c0.3,0,0.5-0.2,0.5-0.5v-4.2c0-0.3-0.2-0.5-0.5-0.5h-7.5c-0.3,0-0.5,0.2-0.5,0.5V19
		C15.5,19.2,15.6,19.4,15.9,19.4z M16.4,15.2h6.5v3.3h-6.5V15.2z"/>
	<path d="M3.3,13.4h3.7c0.3,0,0.5-0.2,0.5-0.5s-0.2-0.5-0.5-0.5H3.3c-0.3,0-0.5,0.2-0.5,0.5S3.1,13.4,3.3,13.4z"/>
	<path d="M8.9,13.4h3.7c0.3,0,0.5-0.2,0.5-0.5s-0.2-0.5-0.5-0.5H8.9c-0.3,0-0.5,0.2-0.5,0.5S8.7,13.4,8.9,13.4z"/>
	<path d="M3.3,15.2h6.1c0.3,0,0.5-0.2,0.5-0.5c0-0.3-0.2-0.5-0.5-0.5H3.3c-0.3,0-0.5,0.2-0.5,0.5C2.9,15,3.1,15.2,3.3,15.2z"/>
	<path d="M12.7,14.3h-1.4c-0.3,0-0.5,0.2-0.5,0.5c0,0.3,0.2,0.5,0.5,0.5h1.4c0.3,0,0.5-0.2,0.5-0.5C13.1,14.5,12.9,14.3,12.7,14.3z"
		/>
	<path d="M28.6,8.5c-0.3-0.4-0.7-0.7-1.3-0.7l-1.1-0.1V6.4V5.4c0-1-0.8-1.9-1.9-1.9H2.9C1.8,3.6,1,4.4,1,5.4v0.9v3.7v10.3
		c0,0.8,0.6,1.6,1.3,1.8C2.3,23.1,3,23.9,4,24l21.6,2.4c0,0,0.1,0,0.2,0c0.9,0,1.8-0.7,1.9-1.6l1.4-15C29,9.4,28.9,8.9,28.6,8.5z
		 M1.9,6.8h23.3V8v1.6H1.9V6.8z M2.9,4.5h21.5c0.5,0,0.9,0.4,0.9,0.9v0.5H1.9V5.4C1.9,4.9,2.4,4.5,2.9,4.5z M1.9,20.4v-9.8h23.3v9.8
		c0,0.5-0.4,0.9-0.9,0.9H2.9h0C2.4,21.3,1.9,20.9,1.9,20.4z M28.1,9.7l-1.4,15c0,0.5-0.5,0.9-1,0.8L4.1,23.1c-0.5,0-0.8-0.4-0.8-0.8
		h21c1,0,1.9-0.8,1.9-1.9V10.1V8.6l1.1,0.1c0.2,0,0.5,0.1,0.6,0.3C28,9.2,28.1,9.4,28.1,9.7z"/>
</g>
</svg>
