<?xml version="1.0" encoding="utf-8"?>
<!-- Generator: Adobe Illustrator 22.1.0, SVG Export Plug-In . SVG Version: 6.00 Build 0)  -->
<svg version="1.1" id="Capa_1" xmlns="http://www.w3.org/2000/svg" xmlns:xlink="http://www.w3.org/1999/xlink" x="0px" y="0px"
	 viewBox="0 0 30 30" style="enable-background:new 0 0 30 30;" xml:space="preserve">
<g>
	<g>
		<g>
			<path d="M28.2,14.2h-2.5c-0.5,0-0.8,0.4-0.8,0.8c0,0.5,0.4,0.8,0.8,0.8h2.5c0.5,0,0.8-0.4,0.8-0.8C29,14.5,28.6,14.2,28.2,14.2z"
				/>
		</g>
	</g>
	<g>
		<g>
			<path d="M27.1,19.3l-1.6-1.6c-0.3-0.3-0.8-0.3-1.2,0c-0.3,0.3-0.3,0.8,0,1.2l1.6,1.6c0.3,0.3,0.8,0.3,1.2,0
				C27.4,20.2,27.4,19.7,27.1,19.3z"/>
		</g>
	</g>
	<g>
		<g>
			<path d="M27.1,9.5c-0.3-0.3-0.8-0.3-1.2,0l-1.6,1.6c-0.3,0.3-0.3,0.8,0,1.2c0.3,0.3,0.8,0.3,1.2,0l1.6-1.6
				C27.4,10.3,27.4,9.8,27.1,9.5z"/>
		</g>
	</g>
	<g>
		<g>
			<path d="M20,4.3c-1.2,0-2.3,0.9-2.4,2.1l-0.7,0.7c-1.3,1.3-3.2,2.1-5.1,2.1H6.7c-1.1,0-2,0.7-2.3,1.6H4.3c-1.8,0-3.3,1.5-3.3,3.3
				s1.5,3.3,3.3,3.3h0.1c0.2,0.7,0.8,1.3,1.5,1.5v4.2c0,1.4,1.1,2.5,2.5,2.5c1.4,0,2.5-1.1,2.5-2.5v-4.1h0.8c1.9,0,3.8,0.8,5.1,2.1
				l0.7,0.7c0.2,1.2,1.2,2.1,2.4,2.1c1.4,0,2.5-1.1,2.5-2.5V6.8C22.4,5.4,21.3,4.3,20,4.3z M4.3,15.8c-0.9,0-1.6-0.7-1.6-1.6
				s0.7-1.6,1.6-1.6V15.8z M9.2,23.2c0,0.5-0.4,0.8-0.8,0.8s-0.8-0.4-0.8-0.8v-4.1h1.6V23.2z M10.8,17.5H6.7c-0.5,0-0.8-0.4-0.8-0.8
				v-4.9c0-0.5,0.4-0.8,0.8-0.8h4.1V17.5z M17.5,19.6c-1.4-1.2-3.2-1.9-5-2.1l0-6.6c1.9-0.2,3.7-0.9,5-2.1V19.6z M20.8,21.6
				c0,0.5-0.4,0.8-0.8,0.8h0c-0.5,0-0.8-0.4-0.8-0.8V6.8C19.2,6.3,19.5,6,20,6c0.5,0,0.8,0.4,0.8,0.8V21.6z"/>
		</g>
	</g>
</g>
</svg>
