<?xml version="1.0" encoding="utf-8"?>
<!-- Generator: Adobe Illustrator 22.1.0, SVG Export Plug-In . SVG Version: 6.00 Build 0)  -->
<svg version="1.1" id="Слой_1" xmlns="http://www.w3.org/2000/svg" xmlns:xlink="http://www.w3.org/1999/xlink" x="0px" y="0px"
	 viewBox="0 0 30 30" style="enable-background:new 0 0 30 30;" xml:space="preserve">
<g>
	<g>
		<path d="M25.4,4.6c-3.4,0-6.7-1.1-9.5-3.1l-0.6-0.4c-0.2-0.1-0.4-0.1-0.5,0l-0.6,0.4c-2.8,2-6.1,3.1-9.5,3.1
			c-0.2,0-0.5,0.2-0.5,0.5v8.6c0,6.2,3.6,12,9.2,14.7l1.4,0.7c0.1,0,0.1,0,0.2,0c0.1,0,0.1,0,0.2,0l1.4-0.7
			c5.6-2.7,9.2-8.4,9.2-14.7V5.1C25.8,4.8,25.6,4.6,25.4,4.6L25.4,4.6z M24.9,13.6c0,5.9-3.4,11.3-8.7,13.9L15,28l-1.2-0.6
			c-5.3-2.5-8.7-8-8.7-13.9V5.5c3.5-0.1,6.8-1.2,9.6-3.3L15,2l0.3,0.2c2.8,2.1,6.1,3.2,9.6,3.3V13.6z"/>
		<path d="M10.9,11.1v2.3h-0.5c-0.2,0-0.5,0.2-0.5,0.5v6.3c0,0.2,0.2,0.5,0.5,0.5h9c0.2,0,0.5-0.2,0.5-0.5v-6.3
			c0-0.2-0.2-0.5-0.5-0.5h-0.5v-2.3c0-2.2-1.8-4.1-4.1-4.1C12.8,7.1,10.9,8.9,10.9,11.1L10.9,11.1z M10.9,19.7v-2.3h1.8v-0.9h-1.8
			v-2.3h8.1v2.3h-1.8v0.9h1.8v2.3H10.9z M16.4,13.4h-2.7v-2.3c0-0.7,0.6-1.4,1.4-1.4c0.7,0,1.4,0.6,1.4,1.4V13.4z M18.2,11.1v2.3
			h-0.9v-2.3c0-1.2-1-2.3-2.3-2.3c-1.2,0-2.3,1-2.3,2.3v2.3h-0.9v-2.3C11.8,9.4,13.3,8,15,8C16.7,8,18.2,9.4,18.2,11.1z"/>
		<path d="M15,15.6c-0.7,0-1.4,0.6-1.4,1.4c0,0.7,0.6,1.4,1.4,1.4c0.7,0,1.4-0.6,1.4-1.4C16.4,16.2,15.7,15.6,15,15.6z M15,17.4
			c-0.2,0-0.5-0.2-0.5-0.5c0-0.2,0.2-0.5,0.5-0.5c0.2,0,0.5,0.2,0.5,0.5C15.5,17.2,15.2,17.4,15,17.4z"/>
	</g>
</g>
</svg>
