<?xml version="1.0" encoding="utf-8"?>
<!-- Generator: Adobe Illustrator 23.0.2, SVG Export Plug-In . SVG Version: 6.00 Build 0)  -->
<svg version="1.1" id="Capa_1" xmlns="http://www.w3.org/2000/svg" xmlns:xlink="http://www.w3.org/1999/xlink" x="0px" y="0px"
	 viewBox="0 0 30 30" style="enable-background:new 0 0 30 30;" xml:space="preserve">
<style type="text/css">
	.st0{fill:#FFFFFF;}
</style>
<path id="XMLID_971_" class="st0" d="M27.1,11.4c0.2-0.5,0.2-0.9,0.2-1.5c0-2.6-2.1-4.8-4.8-4.8c-0.1,0-0.1,0-0.2,0
	c-0.9-1.3-2.3-2-3.9-2s-3,0.8-3.9,2c-0.1,0-0.1,0-0.2,0c-1.1,0-2.2,0.4-3.1,1.1V2.6h-0.6c-2.3,0-4.3,1.6-4.9,3.7L4.5,4.9L4.1,5.3
	C2.5,7,2.2,9.5,3.3,11.4H1v0.6c0,5,2.7,9.7,7.1,12.1v3.2h13.8v-3.2C26.3,21.7,29,17,29,12v-0.6H27.1z M14.4,6.4c0.1,0,0.3,0,0.4,0
	l0.4,0.1l0.2-0.3c0.7-1.1,1.9-1.8,3.2-1.8S21,5,21.7,6.1l0.2,0.3l0.4-0.1c0.1,0,0.3,0,0.4,0c2,0,3.6,1.6,3.6,3.6
	c0,0.5-0.1,1-0.3,1.5h-4.1l2.2-2.2l-0.8-0.8l-3,3h-1V6.4h-1.2v5h-1l-3.1-3l-0.8,0.8l2.2,2.2h-3.9V7.9C12,7,13.1,6.4,14.4,6.4z
	 M10.2,3.8v6.8L6.9,7.3C7.1,5.6,8.4,4,10.2,3.8z M4.5,6.6l4.8,4.8H4.7C3.6,10,3.4,8,4.5,6.6z M9.3,26.2v-1.8h11.5v1.8H9.3z
	 M21.2,23.3H8.8C4.9,21.1,2.4,17,2.2,12.6h25.6C27.6,17,25.1,21.1,21.2,23.3z"/>
</svg>
