<?xml version="1.0" encoding="utf-8"?>
<!-- Generator: Adobe Illustrator 23.0.2, SVG Export Plug-In . SVG Version: 6.00 Build 0)  -->
<svg version="1.1" id="Capa_1" xmlns="http://www.w3.org/2000/svg" xmlns:xlink="http://www.w3.org/1999/xlink" x="0px" y="0px"
	 viewBox="0 0 50 56" style="enable-background:new 0 0 50 56;" xml:space="preserve">
<style type="text/css">
	.st0{fill:#BA131A;}
</style>
<g>
	<path class="st0" d="M2.4,35.9c-0.8,0-1.4,0.7-1.4,1.4v2.1C1,49,9.8,55.2,15.4,55.2H34c7.1,0,15-5.7,15-15.7v-2.1
		c0-0.8-0.7-1.4-1.4-1.4L2.4,35.9L2.4,35.9z M33.9,53.5H16.1C10.6,53.5,4,48,3.2,42.4h43.7C46.3,47.5,41,53.3,33.9,53.5z M3,40.3
		C2.9,39.7,2.9,39,3,38c1.3,0,42.9,0,43.9,0c0,1.6,0.1,1.7,0,2.4"/>
	<path class="st0" d="M6,35.9c0.7-2.1,2.7-4.7,5.1-4.7c0.9,0,1.5-0.7,1.5-1.5c0-2.9,2.9-5,5.7-5c0.5,0,1,0.1,1.4,0.2
		s0.9,0.1,1.1-0.1c0.4-0.2,0.7-0.6,0.8-1c0.5-1.5,2.1-2.7,3.7-2.7c1.5,0,3.5,1.2,4,2.8c0.1,0.4,0.4,0.8,0.8,1s0.8,0.3,1.1,0.1
		c0.5-0.1,1.3-0.1,1.8-0.1c2.9,0,4.9,2.3,4.9,5.2c0,0.9,0.7,1.5,1.5,1.5c2.3,0,4.7,2.3,5.4,4.4h2.1c-0.7-3.4-3.4-6-6.7-6.6
		c-0.7-3.9-4.1-6.9-8.2-6.9c-0.3,0-0.7,0-1,0.1c-1.1-2.1-3.4-3.4-5.8-3.4s-4.7,1.3-5.8,3.4c-0.3,0-0.7-0.1-1-0.1
		c-4.1,0-7.5,3-8.2,6.9c-3.3,0.6-6,3.3-6.6,6.6L6,35.9z"/>
	<path class="st0" d="M25.2,25.3c-0.7,0-1.2,0.6-1.2,1.2v0.1c0,0.7,0.6,1.2,1.2,1.2c0.7,0,1.2-0.6,1.2-1.2v-0.1
		C26.5,25.9,25.9,25.3,25.2,25.3z"/>
	<path class="st0" d="M20.4,28.3c-0.7,0-1.2,0.6-1.2,1.2v0.1c0,0.7,0.6,1.2,1.2,1.2c0.7,0,1.2-0.6,1.2-1.2v-0.1
		C21.6,28.9,21,28.3,20.4,28.3z"/>
	<path class="st0" d="M28.8,29.5c-0.7,0-1.2,0.6-1.2,1.2v0.1c0,0.7,0.6,1.2,1.2,1.2c0.7,0,1.2-0.6,1.2-1.2v-0.1
		C30,30,29.5,29.5,28.8,29.5z"/>
	<path class="st0" d="M32.3,14.3c-0.2,0-0.4-0.1-0.6-0.2c-0.1-0.1-2.1-1.5-1.9-3.7c0.1-2,1.1-2.9,1.9-3.4c0.7-0.6,1.1-1,1.1-2.1
		c0.1-1.6-1-2.1-1-2.1c-0.5-0.2-0.7-0.8-0.5-1.2s0.8-0.7,1.2-0.5c0.1,0,2.2,1,2.1,3.9c0.1,2-0.8,2.8-1.6,3.4c-0.7,0.6-1.1,1-1.1,2.1
		c-0.1,1.1,1.1,2.1,1.1,2.1c0.4,0.3,0.6,0.9,0.2,1.3C32.9,14.2,32.6,14.3,32.3,14.3z"/>
	<path class="st0" d="M25.1,14.3c-0.2,0-0.4-0.1-0.6-0.2c-0.1-0.1-2.1-1.5-1.9-3.7c0.1-2,1.1-2.9,1.9-3.4c0.7-0.6,1.1-1,1.1-2.1
		c0.1-1.6-1-2.1-1-2.1C24.1,2.5,23.8,2,24,1.5C24.2,1,24.8,0.8,25.2,1c0.1,0,2.2,1,2.1,3.9c-0.1,2.1-1.1,2.9-1.8,3.5
		c-0.7,0.6-1.1,1-1.1,2.1c-0.1,1.1,1.1,2.1,1.1,2.1c0.4,0.3,0.6,0.9,0.2,1.3C25.7,14.2,25.4,14.3,25.1,14.3z"/>
	<path class="st0" d="M18.2,14.3c-0.2,0-0.4-0.1-0.6-0.2c-0.1-0.1-2.1-1.5-1.9-3.7c0.1-2,1.1-2.9,1.9-3.4c0.7-0.6,1.1-1,1.1-2.1
		c0.1-1.6-0.9-2.1-1-2.1C17.2,2.6,17,2,17.2,1.6C17.6,1,18.1,0.8,18.6,1c0.1,0,2.2,1,2.1,3.9c-0.1,2.1-1.1,2.9-1.8,3.5
		c-0.7,0.6-1.1,1-1.1,2.1c-0.1,1.1,1.1,2.1,1.1,2.1c0.4,0.3,0.5,1,0.2,1.3C18.8,14.2,18.5,14.3,18.2,14.3z"/>
</g>
</svg>
