<?xml version="1.0" encoding="utf-8"?>
<!-- Generator: Adobe Illustrator 22.1.0, SVG Export Plug-In . SVG Version: 6.00 Build 0)  -->
<svg version="1.1" id="Capa_1" xmlns="http://www.w3.org/2000/svg" xmlns:xlink="http://www.w3.org/1999/xlink" x="0px" y="0px"
	 viewBox="0 0 30 30" style="enable-background:new 0 0 30 30;" xml:space="preserve">
<g>
	<g>
		<path d="M27.9,9.6c-1.5-3.4-4-5.9-7.5-7.4C18.7,1.4,16.9,1,15,1c-1.9,0-3.7,0.4-5.4,1.1c-3.4,1.5-6,4-7.4,7.4
			C1.4,11.3,1,13.1,1,15c0,1.9,0.4,3.7,1.1,5.5c1.5,3.4,4,6,7.4,7.4c1.7,0.7,3.5,1.1,5.4,1.1s3.7-0.4,5.4-1.1c3.5-1.5,6-4,7.5-7.4
			c0.7-1.7,1.1-3.6,1.1-5.5C29,13.1,28.6,11.3,27.9,9.6z M25.6,21.2c-1.1,1.9-2.6,3.4-4.5,4.5c-1.9,1.1-3.9,1.7-6.2,1.7
			c-1.7,0-3.3-0.3-4.8-1c-1.5-0.7-2.8-1.5-3.9-2.6c-1.1-1.1-2-2.4-2.6-3.9c-0.6-1.5-1-3.1-1-4.8c0-2.2,0.5-4.3,1.6-6.2
			c1.1-1.9,2.6-3.4,4.5-4.5c1.9-1.1,3.9-1.7,6.2-1.7c2.2,0,4.3,0.6,6.2,1.7c1.9,1.1,3.4,2.6,4.5,4.5c1.1,1.9,1.7,3.9,1.7,6.2
			C27.3,17.2,26.8,19.3,25.6,21.2z"/>
		<path d="M15.9,14.9V6.9c0-0.5-0.4-0.9-0.9-0.9c-0.4,0-0.8,0.4-0.8,0.9V15c0,0,0,0.1,0,0.1c0,0.3,0,0.5,0.2,0.7l4.6,4.6
			c0.3,0.3,0.9,0.3,1.2,0c0.4-0.4,0.3-0.9,0-1.2L15.9,14.9z"/>
	</g>
</g>
</svg>
