<?xml version="1.0" encoding="utf-8"?>
<!-- Generator: Adobe Illustrator 22.1.0, SVG Export Plug-In . SVG Version: 6.00 Build 0)  -->
<svg version="1.1" id="Слой_1" xmlns="http://www.w3.org/2000/svg" xmlns:xlink="http://www.w3.org/1999/xlink" x="0px" y="0px"
	 viewBox="0 0 18 19" style="enable-background:new 0 0 18 19;" xml:space="preserve">
<style type="text/css">
	.st0{fill:#B2B2B7;}
</style>
<path id="Иконка_банковские_карты_" class="st0" d="M16.6,9L9.1,1.4C8.5,0.9,7.6,0.9,7,1.4c0,0,0,0,0,0
	L2.9,5.6c-0.6,0.6-0.6,1.6,0,2.2l0.7,0.7h1.6L3.7,6.9C3.6,6.9,3.6,6.8,3.6,6.6c0-0.1,0-0.2,0.1-0.3l0.5-0.5l2.6,2.6h2.5L5.5,4.6
	l2.3-2.3C7.8,2.2,8,2.1,8.1,2.1c0.1,0,0.2,0,0.3,0.1l7.4,7.5c0.1,0.1,0.1,0.2,0.1,0.3c0,0.1-0.1,0.2-0.1,0.3l-0.4,0.4v1.6l1.2-1.2
	C17.1,10.5,17.1,9.6,16.6,9z M13.1,9.1H2.5C1.7,9.1,1,9.8,1,10.7v4h13.6v-4C14.6,9.8,13.9,9.2,13.1,9.1C13.1,9.1,13.1,9.1,13.1,9.1
	L13.1,9.1z M4.7,13.3c-0.3,0-0.6-0.1-0.8-0.3c-0.2,0.2-0.5,0.3-0.8,0.3c-0.6,0-1.1-0.5-1.1-1.1s0.5-1.1,1.1-1.1
	c0.3,0,0.6,0.1,0.8,0.3c0.4-0.4,1.1-0.4,1.6,0c0.4,0.4,0.4,1.1,0,1.6C5.2,13.2,5,13.3,4.7,13.3z M1,16.5C1,17.3,1.7,18,2.5,18h10.5
	c0.8,0,1.5-0.7,1.5-1.5c0,0,0,0,0,0v-0.1L1,16.5L1,16.5z"/>
</svg>
