<?xml version="1.0" encoding="utf-8"?>
<!-- Generator: Adobe Illustrator 22.1.0, SVG Export Plug-In . SVG Version: 6.00 Build 0)  -->
<svg version="1.1" id="Слой_1" xmlns="http://www.w3.org/2000/svg" xmlns:xlink="http://www.w3.org/1999/xlink" x="0px" y="0px"
	 viewBox="0 0 30 30" style="enable-background:new 0 0 30 30;" xml:space="preserve">
<style type="text/css">
	.st0{fill:#BA131A;}
	.st1{fill:#FFFFFF;}
</style>
<path class="st0" d="M24,24.5H6c-2.8,0-5-2.2-5-5v-9c0-2.8,2.2-5,5-5h18c2.8,0,5,2.2,5,5v9C29,22.3,26.8,24.5,24,24.5z"/>
<path class="st1" d="M9.3,11.1c0-0.8,0.2-1.4,0.7-1.9s1.1-0.7,1.9-0.7c0.8,0,1.4,0.3,1.9,0.8s0.7,1.1,0.7,1.9v0.6
	c0,0.8-0.2,1.4-0.7,1.9s-1.1,0.7-1.9,0.7c-0.8,0-1.4-0.2-1.9-0.7s-0.7-1.1-0.7-2V11.1z M10.5,11.7c0,0.5,0.1,0.8,0.4,1.1
	c0.3,0.3,0.6,0.4,1,0.4c0.4,0,0.8-0.1,1-0.4c0.3-0.3,0.4-0.7,0.4-1.2v-0.6c0-0.5-0.1-0.8-0.4-1.1c-0.3-0.3-0.6-0.4-1-0.4
	s-0.8,0.1-1,0.4c-0.3,0.3-0.4,0.7-0.4,1.2V11.7z M12.3,20.4l-0.9-0.6l6.2-10l0.9,0.6L12.3,20.4z M15.5,18.3c0-0.8,0.2-1.4,0.7-1.9
	s1.1-0.7,1.9-0.7s1.4,0.2,1.9,0.7s0.7,1.1,0.7,2v0.6c0,0.8-0.2,1.4-0.7,1.9s-1.1,0.7-1.9,0.7s-1.4-0.2-1.9-0.7s-0.7-1.1-0.7-2V18.3z
	 M16.7,18.9c0,0.5,0.1,0.8,0.4,1.1c0.3,0.3,0.6,0.4,1,0.4c0.4,0,0.8-0.1,1-0.4c0.3-0.3,0.4-0.7,0.4-1.2v-0.7c0-0.5-0.1-0.8-0.4-1.1
	s-0.6-0.4-1-0.4c-0.4,0-0.8,0.1-1,0.4c-0.3,0.3-0.4,0.7-0.4,1.2V18.9z"/>
</svg>
