<?xml version="1.0" encoding="utf-8"?>
<!-- Generator: Adobe Illustrator 22.1.0, SVG Export Plug-In . SVG Version: 6.00 Build 0)  -->
<svg version="1.1" id="Capa_1" xmlns="http://www.w3.org/2000/svg" xmlns:xlink="http://www.w3.org/1999/xlink" x="0px" y="0px"
	 viewBox="0 0 30 30" style="enable-background:new 0 0 30 30;" xml:space="preserve">
<g>
	<g>
		<g>
			<path d="M26.3,11.9c-0.3-0.2-0.7-0.2-1,0.1l-5,3.8l-4.5-6c-0.2-0.2-0.4-0.4-0.7-0.4c-0.3,0-0.5,0.1-0.7,0.3l-4.8,6L4.8,12
				c-0.3-0.2-0.7-0.3-1-0.1c-0.3,0.2-0.5,0.6-0.4,0.9l1.5,8.1c0.1,0.4,0.4,0.7,0.9,0.7h18.5c0.4,0,0.8-0.3,0.9-0.7l1.5-8.1
				C26.7,12.5,26.6,12.1,26.3,11.9z M23.5,19.9h-17l-0.9-5L9,17.7c0.2,0.1,0.4,0.2,0.7,0.2c0.2,0,0.5-0.1,0.6-0.3l4.7-5.9l4.4,5.8
				c0.1,0.2,0.4,0.3,0.6,0.3c0.2,0,0.5,0,0.7-0.2l3.8-2.9L23.5,19.9z"/>
		</g>
	</g>
	<g>
		<g>
			<path d="M23.4,20.8v2.3H6.6v-2.3H4.9v3.2c0,0.5,0.4,0.9,0.9,0.9h18.5c0.5,0,0.9-0.4,0.9-0.9v-3.2H23.4z"/>
		</g>
	</g>
	<g>
		<g>
			<path d="M15,5.2c-1.6,0-3,1.3-3,3c0,1.6,1.3,3,3,3c1.6,0,3-1.3,3-3S16.6,5.2,15,5.2z M15,9.3c-0.7,0-1.2-0.5-1.2-1.2
				s0.5-1.2,1.2-1.2s1.2,0.5,1.2,1.2S15.7,9.3,15,9.3z"/>
		</g>
	</g>
	<g>
		<g>
			<path d="M26,7.5c-1.6,0-3,1.3-3,3s1.3,3,3,3c1.6,0,3-1.3,3-3C29,8.8,27.7,7.5,26,7.5z M26,11.7c-0.7,0-1.2-0.5-1.2-1.2
				c0-0.7,0.5-1.2,1.2-1.2s1.2,0.5,1.2,1.2S26.7,11.7,26,11.7z"/>
		</g>
	</g>
	<g>
		<g>
			<path d="M4,7.5c-1.6,0-3,1.3-3,3s1.3,3,3,3c1.6,0,3-1.3,3-3C6.9,8.8,5.6,7.5,4,7.5z M4,11.7c-0.7,0-1.2-0.5-1.2-1.2
				c0-0.7,0.5-1.2,1.2-1.2s1.2,0.5,1.2,1.2C5.2,11.1,4.6,11.7,4,11.7z"/>
		</g>
	</g>
</g>
</svg>
