<?xml version="1.0" encoding="utf-8"?>
<!-- Generator: Adobe Illustrator 23.0.2, SVG Export Plug-In . SVG Version: 6.00 Build 0)  -->
<svg version="1.1" id="Capa_1" xmlns="http://www.w3.org/2000/svg" xmlns:xlink="http://www.w3.org/1999/xlink" x="0px" y="0px"
	 viewBox="0 0 30 30" style="enable-background:new 0 0 30 30;" xml:space="preserve">
<style type="text/css">
	.st0{fill:#FFFFFF;}
</style>
<g>
	<path class="st0" d="M28.2,14.1h-3.7l3.7-4.9C29,8.1,29,7.1,27.9,6.3c-0.6-0.4-1.8-0.5-2.5,0.7l-5.3,7.1H1.8C1.4,14.1,1,14.6,1,15
		v1.2c0,4.5,3.2,8.2,7.4,9.2v1.1c0,1.3,1.1,2.4,2.4,2.4h8.3c1.3,0,2.4-1.1,2.4-2.4v-1.1c4.2-0.9,7.4-4.7,7.4-9.2V15
		C29,14.5,28.6,14.1,28.2,14.1z M26.2,7.4c0.2-0.4,0.7-0.5,1.1-0.2c0.4,0.2,0.6,0.7,0.2,1.1l-4.4,5.8h-1.9L26.2,7.4z M20.4,26.5
		c0,0.7-0.8,1.3-1.3,1.3h-8.3c-0.5,0-1.3-0.5-1.3-1.3v-0.8c0.1,0,1.2,0,1.3,0H20c0.1,0,0.3,0,0.4,0V26.5z M19.6,24.4h-9.2
		c-3.3,0-6.6-2.5-7.8-5.4h24.7C26.2,22,22.9,24.4,19.6,24.4z M27.6,17.9H2.3C2.3,17.5,2,16,2.2,15.4c0.8,0,25.1,0,25.7,0
		C27.8,16.3,27.7,17.5,27.6,17.9z"/>
	<path class="st0" d="M19.2,9C19.1,9,19,9,18.9,8.9c-0.1-0.1-1.2-0.9-1.1-2.2c0.1-1.2,0.6-1.7,1.1-2c0.4-0.3,0.7-0.6,0.7-1.2
		C19.6,2.5,19,2.2,19,2.2c-0.3-0.1-0.4-0.5-0.3-0.7s0.5-0.4,0.7-0.3c0.1,0,1.3,0.6,1.2,2.3c-0.1,1.2-0.6,1.7-1,2.1
		c-0.4,0.4-0.7,0.6-0.7,1.2c-0.1,0.7,0.7,1.2,0.7,1.2c0.2,0.2,0.3,0.5,0.1,0.8C19.5,9,19.4,9,19.2,9z"/>
	<path class="st0" d="M15,9c-0.1,0-0.2-0.1-0.4-0.1c-0.1-0.1-1.2-0.9-1.1-2.2c0.1-1.2,0.6-1.7,1.1-2c0.4-0.3,0.7-0.6,0.7-1.2
		c0.1-0.9-0.6-1.2-0.6-1.2c-0.3-0.2-0.5-0.5-0.3-0.8s0.5-0.4,0.7-0.3c0.1,0,1.3,0.6,1.2,2.3c-0.1,1.2-0.6,1.7-1,2.1
		c-0.4,0.4-0.7,0.6-0.7,1.2c0,0.6,0.8,1.2,0.8,1.2c0.2,0.2,0.4,0.5,0.1,0.8C15.4,9,15.2,9,15,9z"/>
	<path class="st0" d="M11,9c-0.1,0-0.2-0.1-0.4-0.1C10.6,8.8,9.4,8,9.5,6.7c0.1-1.2,0.6-1.7,1.1-2c0.4-0.3,0.7-0.6,0.7-1.2
		c0.1-0.9-0.5-1.2-0.6-1.2c-0.3-0.1-0.4-0.5-0.3-0.7c0.1-0.3,0.5-0.4,0.7-0.3c0.1,0,1.3,0.6,1.2,2.3c-0.1,1.2-0.6,1.7-1,2.1
		c-0.4,0.4-0.7,0.6-0.7,1.2c-0.1,0.7,0.7,1.2,0.7,1.2c0.2,0.2,0.3,0.6,0.1,0.8C11.3,9,11.1,9,11,9z"/>
</g>
</svg>
