<?xml version="1.0" encoding="utf-8"?>
<!-- Generator: Adobe Illustrator 23.0.2, SVG Export Plug-In . SVG Version: 6.00 Build 0)  -->
<svg version="1.1" id="Capa_1" xmlns="http://www.w3.org/2000/svg" xmlns:xlink="http://www.w3.org/1999/xlink" x="0px" y="0px"
	 viewBox="0 0 18 18" style="enable-background:new 0 0 18 18;" xml:space="preserve">
<g>
	<path d="M6,1H1v5h5V1z M5,5H2V2h3V5z"/>
	<rect x="3" y="3" width="1" height="1"/>
	<path d="M12,1v5h5V1H12z M16,5h-3V2h3V5z"/>
	<rect x="14" y="3" width="1" height="1"/>
	<path d="M1,17h5v-5H1V17z M2,13h3v3H2V13z"/>
	<rect x="3" y="14" width="1" height="1"/>
	<rect x="9" y="1" width="2" height="1"/>
	<polygon points="9,5 10,5 10,4 11,4 11,3 8,3 8,2 7,2 7,3 7,3.5 7,4 9,4 	"/>
	<rect x="7" y="5" width="1" height="1"/>
	<polygon points="11,6 10,6 10,7 7,7 7,8 11,8 	"/>
	<polygon points="2,10 3,10 3,9 2,9 2,7 1,7 1,11 2,11 	"/>
	<rect x="3" y="7" width="1" height="1"/>
	<polygon points="7,11 9,11 9,10 8,10 8,9 6,9 6,7 5,7 5,9 4,9 4,11 5,11 5,10 5.5,10 6,10 7,10 	"/>
	<rect x="10" y="9" width="1" height="2"/>
	<polygon points="10,12 7,12 7,13 9,13 9,16 7,16 7,17 10,17 10,16 12,16 12,15 10,15 	"/>
	<rect x="7" y="14" width="1" height="1"/>
	<rect x="11" y="12" width="1" height="2"/>
	<polygon points="16,14 13,14 13,17 14,17 14,15 16,15 	"/>
	<rect x="15" y="16" width="2" height="1"/>
	<rect x="16" y="12" width="1" height="1"/>
	<polygon points="13,13 14,13 14,10 12,10 12,11 13,11 	"/>
	<polygon points="15,8 14,8 14,7 13,7 13,8 12,8 12,9 16,9 16,8 17,8 17,7 15,7 	"/>
	<rect x="15" y="10" width="2" height="1"/>
</g>
</svg>
