<?xml version="1.0" encoding="utf-8"?>
<!-- Generator: Adobe Illustrator 22.1.0, SVG Export Plug-In . SVG Version: 6.00 Build 0)  -->
<svg version="1.1" id="Слой_1" xmlns="http://www.w3.org/2000/svg" xmlns:xlink="http://www.w3.org/1999/xlink" x="0px" y="0px"
	 viewBox="0 0 18 17" style="enable-background:new 0 0 18 17;" xml:space="preserve">
<style type="text/css">
	.st0{fill:#BA131A;}
</style>
<path id="Иконка_История_заказов_" class="st0" d="M9.4,4.9H8.2v4l3.8,2.2l0.6-1L9.4,8.3L9.4,4.9 M9.4,1
	C6.7,1,4.2,2.4,2.8,4.8L1,3v5.1h5.2L4,5.9c1-2,3.1-3.3,5.4-3.3c3.3-0.1,6,2.5,6,5.8c0.1,3.3-2.5,6-5.8,6c-0.1,0-0.1,0-0.2,0
	c-2.5,0-4.8-1.6-5.7-3.9H2C3,13.8,6,16,9.4,16c4.1,0,7.5-3.4,7.5-7.5S13.5,1,9.4,1"/>
</svg>
