<?xml version="1.0" encoding="utf-8"?>
<!-- Generator: Adobe Illustrator 22.1.0, SVG Export Plug-In . SVG Version: 6.00 Build 0)  -->
<svg version="1.1" id="Слой_1" xmlns="http://www.w3.org/2000/svg" xmlns:xlink="http://www.w3.org/1999/xlink" x="0px" y="0px"
	 viewBox="0 0 17 17" style="enable-background:new 0 0 17 17;" xml:space="preserve">
<style type="text/css">
	.st0{fill:#BA131A;}
</style>
<path id="Иконка_частые_вопросы_" class="st0" d="M8.4,1C4.3,1.1,0.9,4.5,1,8.6c0.1,4.1,3.5,7.5,7.6,7.4
	c4.1-0.1,7.5-3.5,7.4-7.6C15.9,4.3,12.5,0.9,8.4,1z M8.4,13.1L8.4,13.1c-0.6,0-1.1-0.5-1.1-1.1c0-0.6,0.5-1,1.1-1h0
	c0.6,0,1.1,0.5,1,1.1C9.4,12.6,9,13.1,8.4,13.1z M11.1,7.7c-0.3,0.3-0.6,0.6-0.9,0.8L9.7,8.9C9.5,9,9.3,9.2,9.3,9.4
	C9.2,9.6,9.2,9.7,9.2,9.9V10H7.4V9.8c-0.1-0.4,0-0.9,0.3-1.3c0.4-0.4,0.8-0.7,1.3-1c0.1-0.1,0.2-0.2,0.3-0.3C9.5,7,9.6,6.8,9.6,6.5
	c0-0.3-0.1-0.5-0.2-0.7C9.1,5.5,8.8,5.4,8.5,5.5c-0.3,0-0.7,0.1-0.9,0.4C7.4,6.1,7.4,6.4,7.4,6.7v0.1H5.6l0-0.1
	c0-0.9,0.4-1.8,1.2-2.4c0.5-0.3,1.1-0.5,1.7-0.4c0.8,0,1.5,0.2,2.2,0.6c0.6,0.4,0.9,1.1,0.9,1.9C11.5,6.9,11.3,7.4,11.1,7.7z"/>
</svg>
