<?xml version="1.0" encoding="utf-8"?>
<!-- Generator: Adobe Illustrator 22.1.0, SVG Export Plug-In . SVG Version: 6.00 Build 0)  -->
<svg version="1.1" id="Слой_1" xmlns="http://www.w3.org/2000/svg" xmlns:xlink="http://www.w3.org/1999/xlink" x="0px" y="0px"
	 viewBox="0 0 18 16" style="enable-background:new 0 0 18 16;" xml:space="preserve">
<style type="text/css">
	.st0{fill:#BA131A;}
</style>
<path id="иконка_Мои_бонусы_" class="st0" d="M5.7,9.1c0.4,0,0.9,0,1.3-0.1V4.6C6.5,4.5,6.1,4.5,5.7,4.5
	C3.1,4.5,1,5.4,1,6.6V7C1,8.2,3.1,9.1,5.7,9.1z M5.7,11.4c0.4,0,0.9,0,1.3-0.1v-1.3c-0.4,0.1-0.9,0.1-1.3,0.1
	c-2.2,0-4.1-0.7-4.6-1.7C1,8.6,1,8.8,1,8.9v0.5C1,10.5,3.1,11.4,5.7,11.4z M6.9,12.5L6.9,12.5c-0.4,0-0.9,0-1.3,0
	c-2.2,0-4.1-0.7-4.6-1.7C1,10.9,1,11.1,1,11.2v0.5c0,1.1,2.1,2.1,4.7,2.1c0.5,0,1,0,1.5-0.1c-0.1-0.2-0.2-0.5-0.2-0.7L6.9,12.5
	L6.9,12.5z M12.3,1C9.8,1,7.7,1.9,7.7,3.1v0.5c0,1.1,2.1,2.1,4.7,2.1S17,4.7,17,3.5V3.1C17,1.9,14.9,1,12.3,1z M12.3,6.6
	c-2.2,0-4.1-0.7-4.6-1.7C7.7,5.1,7.7,5.2,7.7,5.4v0.5c0,1.1,2.1,2.1,4.7,2.1S17,7,17,5.8V5.4c0-0.1,0-0.3-0.1-0.4
	C16.5,5.9,14.6,6.6,12.3,6.6z M12.3,8.9c-2.2,0-4.1-0.7-4.6-1.7C7.7,7.4,7.7,7.6,7.7,7.7v0.5c0,1.1,2.1,2.1,4.7,2.1S17,9.3,17,8.2
	V7.7c0-0.1,0-0.3-0.1-0.4C16.5,8.2,14.6,8.9,12.3,8.9z M12.3,11.4c-2.2,0-4.1-0.7-4.6-1.7C7.7,9.9,7.7,10,7.7,10.2v0.5
	c0,1.1,2.1,2.1,4.7,2.1s4.7-0.9,4.7-2.1v-0.5c0-0.1,0-0.3-0.1-0.4C16.5,10.7,14.6,11.4,12.3,11.4z M12.3,13.7
	c-2.2,0-4.1-0.7-4.6-1.7c-0.1,0.1-0.1,0.3-0.1,0.4v0.5c0,1.1,2.1,2.1,4.7,2.1s4.7-0.9,4.7-2.1v-0.5c0-0.1,0-0.3-0.1-0.4
	C16.5,13,14.6,13.7,12.3,13.7L12.3,13.7z"/>
</svg>
