<?xml version="1.0" encoding="utf-8"?>
<!-- Generator: Adobe Illustrator 22.1.0, SVG Export Plug-In . SVG Version: 6.00 Build 0)  -->
<svg version="1.1" id="Capa_1" xmlns="http://www.w3.org/2000/svg" xmlns:xlink="http://www.w3.org/1999/xlink" x="0px" y="0px"
	 viewBox="0 0 30 30" style="enable-background:new 0 0 30 30;" xml:space="preserve">
<g>
	<g>
		<path d="M8.2,1.3c-1.6,0-3,0.8-4.1,2.4C3,5.1,2.5,7,2.5,9c0,3.2,1.4,6,3.6,7.1v12.1C6,28.7,6.4,29,6.8,29h2.7
			c0.4,0,0.8-0.3,0.8-0.8l0-12c1-0.5,1.9-1.4,2.5-2.6c0.7-1.3,1.1-2.9,1.1-4.6c0-2-0.6-3.9-1.6-5.4C11.2,2.1,9.8,1.3,8.2,1.3z
			 M9.3,15c-0.3,0.1-0.5,0.4-0.5,0.7v11.8H7.5V15.7c0-0.3-0.2-0.6-0.5-0.7C5.2,14.2,4,11.8,4,9c0-1.7,0.5-3.3,1.3-4.5
			c0.8-1.1,1.8-1.7,2.9-1.7s2.1,0.6,2.9,1.7c0.8,1.2,1.3,2.8,1.3,4.5C12.4,11.8,11.1,14.3,9.3,15z"/>
		<path d="M25.2,1.2c-0.6,0-1.1,0.2-1.5,0.6c0,0,0,0,0,0C23.1,1.3,22.5,1,21.8,1c-0.8,0-1.4,0.3-1.9,0.8c-0.4-0.3-0.9-0.5-1.5-0.5
			c-1.3,0-2.3,1-2.3,2.3V9c0,3.2,1.4,6,3.6,7.1v12.1c0,0.4,0.3,0.8,0.8,0.8h2.7c0.4,0,0.8-0.3,0.8-0.8v-12c1-0.5,1.9-1.4,2.5-2.6
			c0.7-1.3,1.1-2.9,1.1-4.6V3.6C27.5,2.3,26.5,1.2,25.2,1.2z M26,9c0,2.8-1.3,5.3-3.1,6c-0.3,0.1-0.5,0.4-0.5,0.7v0v11.8h-1.2V15.7
			c0-0.1,0-0.2-0.1-0.3C21,15.2,20.8,15,20.7,15c-1.8-0.8-3.1-3.2-3.1-6V3.7c0-0.5,0.4-0.8,0.8-0.8s0.8,0.4,0.8,0.8v3.9
			c0,0.4,0.3,0.8,0.8,0.8c0.4,0,0.8-0.3,0.8-0.8V3.7c0,0,0,0,0-0.1c0,0,0,0,0,0c0-0.6,0.5-1,1-1c0.3,0,0.5,0.1,0.7,0.3
			c0.2,0.2,0.3,0.5,0.3,0.7v4c0,0.4,0.3,0.8,0.8,0.8c0.4,0,0.8-0.3,0.8-0.8v-4c0,0,0,0,0,0c0-0.5,0.4-0.8,0.8-0.8
			c0.5,0,0.8,0.4,0.8,0.8L26,9L26,9z"/>
	</g>
</g>
</svg>
