<?xml version="1.0" encoding="utf-8"?>
<!-- Generator: Adobe Illustrator 23.0.2, SVG Export Plug-In . SVG Version: 6.00 Build 0)  -->
<svg version="1.1" id="Capa_1" xmlns="http://www.w3.org/2000/svg" xmlns:xlink="http://www.w3.org/1999/xlink" x="0px" y="0px"
	 viewBox="0 0 30 30" style="enable-background:new 0 0 30 30;" xml:space="preserve">
<style type="text/css">
	.st0{fill:#B2B2B7;}
</style>
<g>
	<g>
		<path class="st0" d="M11.2,16.4c0-0.4-0.3-0.6-0.6-0.6H8.3c-0.4,0-0.6,0.3-0.6,0.6v2.2c0,0.4,0.3,0.6,0.6,0.6h2.2
			c0.4,0,0.6-0.3,0.6-0.6L11.2,16.4L11.2,16.4z"/>
		<path class="st0" d="M16.7,16.4c0-0.4-0.3-0.6-0.6-0.6h-2.2c-0.4,0-0.6,0.3-0.6,0.6v2.2c0,0.4,0.3,0.6,0.6,0.6h2.2
			c0.4,0,0.6-0.3,0.6-0.6V16.4z"/>
		<path class="st0" d="M22.3,16.4c0-0.4-0.3-0.6-0.6-0.6h-2.2c-0.4,0-0.6,0.3-0.6,0.6v2.2c0,0.4,0.3,0.6,0.6,0.6h2.2
			c0.4,0,0.6-0.3,0.6-0.6V16.4z"/>
		<path class="st0" d="M11.2,22c0-0.4-0.3-0.6-0.6-0.6H8.3c-0.4,0-0.6,0.3-0.6,0.6v2.2c0,0.4,0.3,0.6,0.6,0.6h2.2
			c0.4,0,0.6-0.3,0.6-0.6L11.2,22L11.2,22z"/>
		<path class="st0" d="M16.7,22c0-0.4-0.3-0.6-0.6-0.6h-2.2c-0.4,0-0.6,0.3-0.6,0.6v2.2c0,0.4,0.3,0.6,0.6,0.6h2.2
			c0.4,0,0.6-0.3,0.6-0.6V22z"/>
		<path class="st0" d="M22.3,22c0-0.4-0.3-0.6-0.6-0.6h-2.2c-0.4,0-0.6,0.3-0.6,0.6v2.2c0,0.4,0.3,0.6,0.6,0.6h2.2
			c0.4,0,0.6-0.3,0.6-0.6L22.3,22L22.3,22z"/>
		<path class="st0" d="M26.3,4.1v3.4c0,1.5-1.2,2.8-2.8,2.8h-1.7c-1.5,0-2.8-1.2-2.8-2.8V4.1h-7.9v3.4c0,1.5-1.3,2.8-2.8,2.8H6.5
			C5,10.3,3.7,9,3.7,7.5V4.1c-1.3,0-2.4,1.1-2.4,2.5v19.8c0,1.4,1.1,2.5,2.5,2.5h22.4c1.4,0,2.5-1.1,2.5-2.5V6.6
			C28.7,5.3,27.6,4.2,26.3,4.1z M25.4,25.2c0,0.6-0.5,1.1-1.1,1.1H5.6c-0.6,0-1.1-0.5-1.1-1.1V15c0-0.6,0.5-1.1,1.1-1.1h18.8
			c0.6,0,1.1,0.5,1.1,1.1L25.4,25.2L25.4,25.2z"/>
		<path class="st0" d="M6.5,8.5h1.7c0.5,0,1-0.4,1-1V2c0-0.5-0.4-1-1-1H6.5c-0.5,0-1,0.4-1,1v5.6C5.6,8,6,8.5,6.5,8.5z"/>
		<path class="st0" d="M21.7,8.5h1.7c0.5,0,1-0.4,1-1V2c0-0.5-0.4-1-1-1h-1.7c-0.5,0-1,0.4-1,1v5.6C20.8,8,21.2,8.5,21.7,8.5z"/>
	</g>
</g>
</svg>
