<svg id="Layer_1" xmlns="http://www.w3.org/2000/svg" viewBox="0 0 100 100"><style>.st0{fill-rule:evenodd;clip-rule:evenodd;fill:#BA131A;} .st1{fill:#FFFFFF;}</style><path class="st0" d="M.3 82.2c.6 12.9 6.6 17.6 15.4 17.5H25c5.9 0 45.4.5 59.6-.4C95 98.7 98.7 93.6 99.3 84c.4-6.2 1.4-54.3-.3-70.2-.7-6.7-5.7-10.9-11.8-12.7-3.6-1-8.1-.5-11.9-.7C66.1 0 56.4.3 47.5.5 42.2.6 26-.4 15.6.5 4.3 1.5.5 7.5 0 19.9c-.1 3.7.5 8.1.4 13.3 0 13.6-.8 35.4-.1 49z"/><path class="st1" d="M35.5 20.3c.2.9-.4 1.8-1.3 2.1-.9.3-1.8-.3-1.9-1.2 0 0-.5-2.8-3-2.9h-.2c-1.3 0-2.5.7-3.5 1.9-1.1 1.4-1.8 3.3-2 5.8v.8c0 1.7.2 3.2.6 4.4.4 1.1.9 2.1 1.7 2.7.2.2.4.4.6.5.9.6 1.9.8 2.9.7 1-.2 2-.7 2.9-1.7.3-.3.5-.6.8-1 .5-.8 1.6-1.1 2.3-.6.7.5.9 1.5.3 2.3-.3.5-.7 1-1.1 1.4-1.5 1.6-3.2 2.6-4.9 2.9-1.8.3-3.6-.1-5.1-1.1-.3-.2-.7-.5-1-.8-1.1-1-1.9-2.4-2.5-4-.5-1.6-.8-3.4-.8-5.4v-1c.1-3.3 1.2-6 2.8-8 1.7-2.1 3.9-3.3 6.3-3.3h.4c4.7.4 5.7 5.4 5.7 5.5zm31 57.1c-.9 1.4-1.9 2.6-2.8 3.7-1 1.1-2.1 2-3.1 2.8-.6.5-1.5.4-1.9-.2-.4-.6-.2-1.5.4-2 .9-.7 1.9-1.5 2.8-2.5.5-.6 1-1.2 1.6-1.9-1.8-.4-3.4-1.7-3.2-4.8.4-7 8.2-5.1 9.2-4.8.6.1 1 .6 1 1.3L70 83c0 .8-.7 1.5-1.4 1.5-.8.1-1.4-.5-1.3-1.3l.2-5.9c-.5 0-.7.1-1 .1zm.9-3l.1-4.2c-1.5-.2-4.5-.4-4.6 2.2-.2 2.8 2.9 2.4 4.5 2zm-22-4.4c0-.8.6-1.5 1.3-1.6.8-.1 1.4.5 1.4 1.2l.2 7.2 5.3-7.7c.5-.7 1.3-.9 1.9-.5.4.3.6.7.5 1.2L55.8 81c0 .8-.7 1.5-1.4 1.5-.8.1-1.4-.5-1.3-1.3l.2-6.8-5.1 7.4c-.2.4-.6.6-1.1.7-.8.1-1.4-.5-1.4-1.2L45.4 70zm-12 4.9l5-.5-.2-4.7c0-.8.6-1.5 1.3-1.6.8-.1 1.4.4 1.4 1.2l.5 13c0 .8-.6 1.5-1.3 1.6-.8.1-1.4-.4-1.4-1.2l-.2-5.6-4.9.5.4 5c.1.8-.5 1.5-1.3 1.6-.8.1-1.4-.4-1.5-1.1l-1-13c-.1-.8.5-1.5 1.3-1.6.8-.1 1.4.4 1.5 1.1l.4 5.3zm55.9-20.5c-.8 0-1.3-.6-1.3-1.4.1-.8.7-1.4 1.5-1.5h3.4c.8 0 1.3.6 1.3 1.4-.1.8-.7 1.4-1.5 1.5h-3.4zm-9.6 1.7l3.7.1-1.6-5.7-2.1 5.6zm4.5 3l-5.6-.1-.9 2.6c-.3.8-1.1 1.2-1.8 1-.7-.2-1.1-1-.8-1.7l5.5-15.1c.3-.8 1.1-1.2 1.8-1 .4.1.7.4.8.8l4.4 15.5c.2.7-.2 1.6-1 1.8-.7.3-1.5-.1-1.7-.8l-.7-3zm-18.6 0c0 .8-.7 1.5-1.4 1.5-.8 0-1.4-.6-1.3-1.3l.6-12.7c0-.8.7-1.5 1.4-1.5h.2l7.2.1c.7 0 1.2.6 1.2 1.3L73 59.1c0 .8-.7 1.5-1.4 1.5-.8.1-1.4-.5-1.3-1.3l.3-11.3-4.5-.1-.5 11.2zm-18.9 1.3c-.2.8-.9 1.3-1.6 1.3-.7-.1-1.2-.8-1.1-1.5l2.7-13.9c.2-.8.9-1.3 1.6-1.3.5.1.9.4 1.1.9l2.6 7.6 2.7-7.4c.3-.8 1.1-1.2 1.8-1 .5.1.8.6.9 1.1l2.4 13.7c.1.8-.4 1.5-1.1 1.7-.8.2-1.5-.2-1.6-1l-1.6-8.9-2.3 6.3c-.1.4-.4.7-.8.9-.7.3-1.5 0-1.7-.7l-2.2-6.5-1.8 8.7zM34.3 48.1c-.5.2-1 .6-1.3 1.1-.4.6-.7 1.3-.8 2.1-.3 1.5-.2 3.2.3 4.5.4 1.1 1.1 1.8 1.8 2.2.5.3 1 .3 1.6.3.5-.1 1.1-.3 1.5-.7 2-1.6 2-5.3 1.2-7.4-.2-.7-.6-1.2-1-1.6-.9-.7-2.4-.9-3.3-.5zm-.8-2.6c1.3-.5 3-.5 4.3 0 1.6.6 2.7 1.9 3.3 3.6.6 1.7.7 3.9.5 5.8V55.2c-.3 2-1.4 3.6-2.7 4.7-.9.7-1.9 1.2-3 1.3-1.1.2-2.1 0-3.1-.5-1.2-.6-2.2-1.8-2.9-3.5-.7-2-.9-4.2-.5-6.2.2-1.2.7-2.3 1.3-3.3.8-1 1.7-1.8 2.8-2.2zm-4.1 16.1c.7.5.8 1.6.2 2.4-.6.8-1.6 1-2.3.5-1.7-1.3-3.7-3.1-5.5-5-1.2-1.3-2.4-2.7-3.4-4.2-.5.7-1 1.5-1.5 2.3l.4 6c.1.9-.6 1.8-1.5 2-.9.2-1.7-.5-1.8-1.4l-1.3-19.1c-.1-.9.6-1.8 1.5-2 .9-.2 1.7.5 1.8 1.4l.5 7.8c.7-1 1.4-1.9 2.2-2.9 2.1-2.6 4.2-4.8 6.1-6.7.7-.7 1.7-.7 2.3 0 .6.7.5 1.7-.2 2.4-1.8 1.7-3.8 3.8-5.8 6.3-.2.3-.4.5-.7.8 1 1.5 2.3 3.2 3.7 4.7 1.9 1.9 3.7 3.6 5.3 4.7zm44.1-30.3c-.7 1.2-1.9 2.6-3.2 3.9-1.4 1.4-3 2.7-4.4 3.4-.7.4-1.5.1-1.8-.6-.3-.7.1-1.5.8-1.9 1.1-.6 2.4-1.6 3.6-2.8.7-.7 1.4-1.5 1.9-2.2-1.8-.5-3-1.7-3.3-4.1-.1-.7 0-1.5.2-2.2.3-1 .8-2 1.7-2.7.9-.7 2-1.2 3.5-1.4 1.1-.1 2.4 0 4 .4.6.1 1 .6 1 1.3L77 37.2c0 .8-.7 1.5-1.4 1.5-.8.1-1.4-.5-1.3-1.3l.2-6.2c-.3 0-.6 0-1 .1zm1.1-3l.2-4.7c-.9-.2-1.6-.2-2.3-.2-.8.1-1.4.3-1.8.6-.3.3-.6.7-.7 1.1 0 .5-.1.9 0 1.3.1 1.2.7 1.7 1.6 1.9.8.3 1.9.2 3 0zm-17.3-3.4c-.8.3-1.4.9-1.8 1.7-.4.9-.7 2-.6 3.1 0 .7.1 1.5.4 2.1.3.9.9 1.6 1.4 1.9.5.3 1 .3 1.5.3.5-.1 1-.3 1.5-.6.7-.5 1.3-1.4 1.5-2.4.1-.7.2-1.5.2-2.2 0-1-.2-1.9-.6-2.6-.4-.8-1.1-1.2-1.9-1.3-.5-.1-1.1-.1-1.6 0zm-.7-2.6c.6-.2 1.2-.3 1.9-.3.5 0 1 0 1.5.1 1.6.3 2.7 1.2 3.3 2.4.6 1.1.9 2.5.9 3.8 0 1-.1 2-.3 2.9-.4 1.9-1.4 3.3-2.7 4.3-.4.3-.9.6-1.4.8-1.1.5-2.3.6-3.5.3-.4-.1-.7-.2-1.1-.4-1.1-.6-2-1.6-2.5-3.2-.3-.9-.5-2-.5-3 0-1.5.3-3.1 1-4.5.7-1.5 1.8-2.6 3.4-3.2zm-14.2 5c.8-.1 1.5-.2 2.1-.5.5-.3.9-.8.9-1.6 0-.2 0-.4-.1-.5-.4-1.1-1.7-1.5-2.9-1.4v4zm0 2.8v5.2c.3 0 .6.1.8.1 1.2 0 2.1-.2 2.8-.6.6-.4 1-.9 1-1.6.1-1.8-1.2-3.2-2.8-3.2-.6-.1-1.3.1-1.8.1zm5.7-5.2c0 1.2-.3 2.2-.9 3 .4.2.7.5 1 .8.9 1 1.5 2.3 1.6 3.7.1 4-3.4 5.9-7 5.7-.7 0-1.4-.1-2.2-.3-.5-.1-.9-.6-.9-1.2l-.1-14.2c0-.7.4-1.3 1.1-1.6.8-.3 1.6-.4 2.3-.4 1.1 0 2.2.3 3 .8.9.5 1.6 1.3 1.9 2.3.1.5.2.9.2 1.4z"/></svg>