<svg id="Capa_1" xmlns="http://www.w3.org/2000/svg" viewBox="-49 141 20 20"><style>.st0{fill:#FFFFFF;}</style><path class="st0" d="M-45.7 142h13.4c1.3 0 2.3.9 2.3 2.3v13.4c0 1.4-1 2.3-2.3 2.3h-13.4c-1.3 0-2.3-.9-2.3-2.3v-13.4c0-1.4 1-2.3 2.3-2.3zm10.8 2c-.4 0-.8.4-.8.8v1.9c0 .4.4.8.8.8h2c.4 0 .8-.4.8-.8v-1.9c0-.4-.4-.8-.8-.8h-2zm2.9 5.6h-1.6c.1.5.2 1 .2 1.5 0 3-2.5 5.4-5.6 5.4-3.1 0-5.6-2.4-5.6-5.4 0-.5.1-1.1.2-1.5H-46v7.6c0 .4.3.7.7.7h12.5c.4 0 .7-.3.7-.7l.1-7.6zm-7-2.1c-2 0-3.6 1.6-3.6 3.5s1.6 3.5 3.6 3.5 3.6-1.6 3.6-3.5c0-2-1.6-3.5-3.6-3.5z"/></svg>