<svg id="Capa_1" xmlns="http://www.w3.org/2000/svg" viewBox="-49 141 20 20"><style>.st0{fill:#FFFFFF;}</style><path class="st0" d="M-30.1 155.1s0-.1-.1-.1c-.3-.6-.9-1.3-1.8-2.1-.4-.4-.7-.6-.8-.8-.2-.2-.2-.5-.1-.8.1-.2.4-.6.8-1.2.3-.3.5-.6.6-.8 1.1-1.4 1.5-2.4 1.4-2.8l-.1-.1c0-.1-.1-.1-.3-.2-.2 0-.4-.1-.6 0h-2.7H-34.1l-.1.1s-.1.1-.1.2c-.3.8-.6 1.5-1 2.1-.2.4-.4.7-.6 1-.2.3-.4.5-.5.6-.1.1-.2.2-.4.3-.1.1-.2.1-.2.1h-.2c-.1-.1-.2-.1-.2-.2-.1-.1-.1-.2-.1-.4v-.4-.4-.4-.8-.7-.5-.4c0-.1-.1-.2-.1-.3 0-.1-.1-.2-.2-.2-.1-.1-.2-.1-.3-.1-.3-.1-.8-.1-1.3-.1-1.2 0-1.9.1-2.2.2-.1.1-.2.2-.4.3-.1.1-.1.2 0 .2.4.1.6.2.8.4l.1.1c0 .1.1.2.1.4s.1.4.1.7v1.2c0 .3-.1.6-.1.8s-.1.3-.1.4c-.1.1-.1.2-.1.2h-.3c-.1 0-.2 0-.3-.1-.1-.1-.3-.2-.4-.4-.1-.2-.3-.4-.5-.6-.2-.3-.3-.6-.5-1l-.1-.3-.4-.8c-.2-.3-.3-.7-.4-1 0-.1-.1-.2-.2-.3l-.1-.1c-.1 0-.1 0-.2-.1h-2.6c-.3 0-.4.1-.5.2V146.4c0 .1 0 .2.1.3.4.9.8 1.7 1.2 2.5s.8 1.5 1.1 2c.3.5.7 1 1 1.4.3.4.6.7.7.9l.3.3.2.2c.1.1.4.3.7.5.3.2.6.4 1 .6.4.2.8.4 1.2.5.5.1.9.2 1.4.2h1.1c.2 0 .4-.1.5-.2 0 0 0-.1.1-.2v-.3c0-.3 0-.5.1-.7 0-.2.1-.4.2-.5.1-.1.1-.2.2-.3.1-.1.1-.1.2-.1h.1c.1 0 .3 0 .5.1s.4.3.6.5c.2.2.4.5.6.7.3.3.5.5.7.6l.2.1c.1.1.3.1.5.2s.4.1.5 0h2.4c.2 0 .4 0 .6-.1.1-.1.2-.2.2-.3v-.3c-.6.3-.6.2-.6.1z"/></svg>